<svg xmlns="http://www.w3.org/2000/svg" viewBox="0 0 500 500"><g id="freepik--background-complete--inject-2"><path d="M387.56,79.94,399.4,96.87a3.19,3.19,0,0,0,5.29-.09l11.46-17.6Z" style="fill:#e0e0e0"></path><rect x="375.04" y="51.6" width="51.85" height="37.71" rx="11.56" style="fill:#e0e0e0"></rect><path d="M411.12,67c-1.67-3-4.42-3.51-6.27-2.82A6.4,6.4,0,0,0,401.79,67a6.45,6.45,0,0,0-3.06-2.82c-1.85-.69-4.61-.22-6.27,2.82-3.47,6.34,9.33,14.59,9.33,14.59S414.58,73.33,411.12,67Z" style="fill:#fff"></path><path d="M77.9,68.64,88.71,84.1A2.92,2.92,0,0,0,93.55,84L104,68Z" style="fill:#e0e0e0"></path><rect x="66.47" y="42.76" width="47.35" height="34.43" rx="11.56" style="fill:#e0e0e0"></rect><path d="M99.42,56.82c-1.52-2.78-4-3.21-5.73-2.58a5.83,5.83,0,0,0-2.79,2.58,5.87,5.87,0,0,0-2.8-2.58c-1.69-.63-4.2-.2-5.72,2.58C79.21,62.6,90.9,70.14,90.9,70.14S102.58,62.6,99.42,56.82Z" style="fill:#fff"></path><path d="M48.89,342.6,59.7,358.06a2.92,2.92,0,0,0,4.83-.08L75,341.9Z" style="fill:#e0e0e0"></path><rect x="37.46" y="316.72" width="47.35" height="34.43" rx="11.56" style="fill:#e0e0e0"></rect><path d="M70.4,330.77c-1.52-2.77-4-3.2-5.72-2.57a5.88,5.88,0,0,0-2.8,2.57,5.83,5.83,0,0,0-2.79-2.57c-1.69-.63-4.21-.2-5.73,2.57-3.16,5.79,8.52,13.33,8.52,13.33S73.57,336.56,70.4,330.77Z" style="fill:#fff"></path><path d="M45.34,219.7,58,237.76a3.4,3.4,0,0,0,5.64-.09l12.23-18.78Z" style="fill:#e0e0e0"></path><rect x="31.99" y="189.46" width="55.32" height="40.23" rx="11.56" style="fill:#e0e0e0"></rect><path d="M70.48,205.88c-1.77-3.24-4.71-3.74-6.69-3a6.78,6.78,0,0,0-3.26,3,6.83,6.83,0,0,0-3.27-3c-2-.74-4.91-.24-6.69,3-3.7,6.77,10,15.57,10,15.57S74.18,212.65,70.48,205.88Z" style="fill:#fff"></path><path d="M404,284.07l12.64,18.06a3.4,3.4,0,0,0,5.64-.1l12.23-18.78Z" style="fill:#e0e0e0"></path><rect x="390.61" y="253.83" width="55.32" height="40.23" rx="11.56" style="fill:#e0e0e0"></rect><path d="M429.1,270.25c-1.77-3.24-4.71-3.75-6.69-3a6.78,6.78,0,0,0-3.26,3,6.82,6.82,0,0,0-3.27-3c-2-.74-4.91-.23-6.69,3-3.7,6.76,10,15.57,10,15.57S432.8,277,429.1,270.25Z" style="fill:#fff"></path><path d="M438.93,158.92l2.73.64,7.89-6.9,1.27-5.44s4.27.72,2.11,7.73-1.2,5.32-1.2,5.32,8.94,2.13,9.5,3.08c.41.69-1.42,9.63-2.45,14.48a5.36,5.36,0,0,1-4.92,4.39,3.69,3.69,0,0,1-1-.1c-2.23-.52-13.21-5-13.21-5l-4.71-1.1Z" style="fill:#e0e0e0"></path><polygon points="431.48 155.61 428.8 174.65 433.47 175.74 437.74 157.47 431.48 155.61" style="fill:#e0e0e0"></polygon><path d="M52.76,125.84l-2.78.35-7.13-7.68-.7-5.55s-4.32.28-2.9,7.48.64,5.42.64,5.42-9.12,1.18-9.77,2.07c-.48.64.41,9.73.93,14.65a5.36,5.36,0,0,0,4.44,4.88,3.73,3.73,0,0,0,1,0c2.28-.28,13.66-3.6,13.66-3.6l4.8-.6Z" style="fill:#e0e0e0"></path><polygon points="60.52 123.32 61.2 142.54 56.44 143.13 54.1 124.52 60.52 123.32" style="fill:#e0e0e0"></polygon><path d="M434.38,361l2.62-1,2.74-10.11-2-5.24s4-1.77,6.05,5.27,1.95,5.09,1.95,5.09,8.62-3.19,9.61-2.71c.73.35,4.16,8.81,6,13.41a5.37,5.37,0,0,1-1.67,6.39,3.56,3.56,0,0,1-.88.47c-2.14.81-13.76,3.17-13.76,3.17l-4.53,1.69Z" style="fill:#e0e0e0"></path><polygon points="426.33 362.41 434.66 379.74 439.15 378.06 432.57 360.48 426.33 362.41" style="fill:#e0e0e0"></polygon><path d="M75,286.52H96.91s-2.12-8.39-11.07-8.39A10.49,10.49,0,0,0,75,286.52Z" style="fill:#e0e0e0"></path><circle cx="85.95" cy="271.04" r="6" style="fill:#e0e0e0"></circle></g><g id="freepik--Floor--inject-2"><path d="M459,476.07c0,.15-93.56.26-208.94.26s-209-.11-209-.26,93.54-.26,209-.26S459,475.93,459,476.07Z" style="fill:#263238"></path></g><g id="freepik--Stars--inject-2"><path d="M124.49,197.9l.65,1.19a7.93,7.93,0,0,0,3.17,3.17l1.19.65-1.19.65a7.93,7.93,0,0,0-3.17,3.17l-.65,1.19-.65-1.19a7.93,7.93,0,0,0-3.17-3.17l-1.19-.65,1.19-.65a7.93,7.93,0,0,0,3.17-3.17Z" style="fill:#FFCC70"></path><path d="M152.22,74.92l1.25,2.28a15.23,15.23,0,0,0,6.06,6.06l2.28,1.25-2.28,1.25a15.26,15.26,0,0,0-6.07,6.06l-1.24,2.28L151,91.82a15.23,15.23,0,0,0-6.06-6.06l-2.28-1.25,2.28-1.25A15.23,15.23,0,0,0,151,77.2Z" style="fill:#FFCC70"></path><path d="M404,224.88l.54,1a6.64,6.64,0,0,0,2.64,2.64l1,.54-1,.54a6.64,6.64,0,0,0-2.64,2.64l-.55,1-.54-1a6.64,6.64,0,0,0-2.64-2.64l-1-.54,1-.54a6.64,6.64,0,0,0,2.64-2.64Z" style="fill:#FFCC70"></path><path d="M101.51,237.75l.54,1a6.7,6.7,0,0,0,2.64,2.64l1,.54-1,.54a6.7,6.7,0,0,0-2.64,2.64l-.54,1-.55-1a6.62,6.62,0,0,0-2.63-2.64l-1-.54,1-.54a6.62,6.62,0,0,0,2.63-2.64Z" style="fill:#FFCC70"></path><path d="M426.8,201.28l.27.49a3.35,3.35,0,0,0,1.32,1.32l.5.27-.5.28a3.39,3.39,0,0,0-1.32,1.31l-.27.5-.27-.5a3.26,3.26,0,0,0-1.32-1.31l-.5-.28.5-.27a3.23,3.23,0,0,0,1.32-1.32Z" style="fill:#FFCC70"></path><path d="M377.27,183.88l.55,1a6.58,6.58,0,0,0,2.64,2.64l1,.55-1,.54a6.58,6.58,0,0,0-2.64,2.64l-.55,1-.54-1a6.58,6.58,0,0,0-2.64-2.64l-1-.54,1-.55a6.58,6.58,0,0,0,2.64-2.64Z" style="fill:#FFCC70"></path><path d="M356.52,57.89l.54,1a6.64,6.64,0,0,0,2.64,2.64l1,.54-1,.55a6.64,6.64,0,0,0-2.64,2.64l-.54,1-.54-1a6.64,6.64,0,0,0-2.64-2.64l-1-.55,1-.54A6.64,6.64,0,0,0,356,58.88Z" style="fill:#FFCC70"></path><path d="M128,63.77l.54,1a6.58,6.58,0,0,0,2.64,2.64l1,.55-1,.54a6.58,6.58,0,0,0-2.64,2.64l-.54,1-.55-1a6.58,6.58,0,0,0-2.64-2.64l-1-.54,1-.55a6.58,6.58,0,0,0,2.64-2.64Z" style="fill:#FFCC70"></path><path d="M135.87,266.68l1,1.92a12.88,12.88,0,0,0,5.11,5.11l1.93,1.05L142,275.81a13,13,0,0,0-5.11,5.11l-1,1.93-1.05-1.93a12.88,12.88,0,0,0-5.11-5.11l-1.92-1.05,1.92-1.05a12.82,12.82,0,0,0,5.11-5.11Z" style="fill:#FFCC70"></path></g><g id="freepik--Plants--inject-2"><path d="M147.81,442.83A26.18,26.18,0,0,0,149,458.9c3.72-3.6,7.81-9.47,8.84-14.55a25.06,25.06,0,0,0-1.41-15A25.79,25.79,0,0,0,147.81,442.83Z" style="fill:#455a64"></path><path d="M150.61,451a5.35,5.35,0,0,1,0-.89c0-.56.13-1.38.27-2.39a62.21,62.21,0,0,1,1.59-7.78,65,65,0,0,1,2.55-7.53c.39-.94.73-1.69,1-2.2a5.06,5.06,0,0,1,.41-.79,4.7,4.7,0,0,1-.3.83c-.22.53-.52,1.29-.88,2.24a78.63,78.63,0,0,0-2.46,7.52,76.61,76.61,0,0,0-1.67,7.74c-.17,1-.29,1.81-.37,2.38A4.78,4.78,0,0,1,150.61,451Z" style="fill:#263238"></path><path d="M124.81,449A26.2,26.2,0,0,0,126,465c3.72-3.6,7.8-9.47,8.83-14.55a26,26,0,0,0-1.54-15.23A26.27,26.27,0,0,0,124.81,449Z" style="fill:#455a64"></path><path d="M127.61,457.09a5.79,5.79,0,0,1,0-.88c0-.57.14-1.39.28-2.39a63.31,63.31,0,0,1,4.14-15.31c.39-.94.72-1.7,1-2.21a5.19,5.19,0,0,1,.41-.78,5.05,5.05,0,0,1-.3.83c-.22.52-.52,1.29-.89,2.23-.72,1.9-1.65,4.54-2.46,7.53s-1.34,5.74-1.67,7.74c-.16,1-.28,1.81-.36,2.37A4.78,4.78,0,0,1,127.61,457.09Z" style="fill:#263238"></path><path d="M110.17,434.11a26.21,26.21,0,0,1-9.57-13c5.17.31,12.1,2.1,16.19,5.27A26,26,0,0,1,125.54,439,26.27,26.27,0,0,1,110.17,434.11Z" style="fill:#455a64"></path><path d="M107,426.11a4.25,4.25,0,0,0,.6.64c.41.41,1,1,1.77,1.64a62.32,62.32,0,0,0,6.28,4.86,63.81,63.81,0,0,0,6.84,4.05c.91.46,1.65.81,2.18,1a5.22,5.22,0,0,0,.82.32,7.49,7.49,0,0,0-.78-.43l-2.12-1.12a76.32,76.32,0,0,1-13.08-8.88c-.78-.65-1.4-1.19-1.83-1.56A7.55,7.55,0,0,0,107,426.11Z" style="fill:#263238"></path><path d="M132.25,426.46a26.21,26.21,0,0,1-9.57-13c5.17.3,12.1,2.09,16.19,5.27a26,26,0,0,1,8.75,12.55A26.26,26.26,0,0,1,132.25,426.46Z" style="fill:#455a64"></path><path d="M129.07,418.46a4.93,4.93,0,0,0,.6.64c.41.4,1,1,1.77,1.64a63.53,63.53,0,0,0,13.12,8.9c.91.46,1.65.82,2.18,1a4.84,4.84,0,0,0,.82.33,5.9,5.9,0,0,0-.77-.43c-.51-.26-1.24-.64-2.13-1.12-1.79-1-4.21-2.37-6.77-4.1s-4.76-3.48-6.31-4.78c-.78-.65-1.4-1.19-1.83-1.56A4.7,4.7,0,0,0,129.07,418.46Z" style="fill:#263238"></path><path d="M172.76,429.26h-.67l-1.91-.05-1.38,0c-.51,0-1.06,0-1.65,0-1.18,0-2.52,0-4,.09l-2.32.11c-.81.05-1.65.15-2.52.22-1.74.13-3.59.42-5.53.69a92.3,92.3,0,0,0-24.39,7.33c-1.77.84-3.47,1.62-5,2.48-.77.41-1.52.79-2.22,1.2l-2,1.19c-1.29.73-2.4,1.5-3.39,2.14-.49.32-1,.61-1.38.9l-1.12.8-1.57,1.11a5.39,5.39,0,0,1-.56.36,4,4,0,0,1,.52-.43l1.52-1.16,1.11-.84,1.36-.93c1-.65,2.08-1.44,3.36-2.19l2-1.22c.7-.41,1.46-.8,2.22-1.22,1.53-.87,3.22-1.66,5-2.53a90.41,90.41,0,0,1,24.48-7.36c2-.25,3.81-.53,5.56-.64.87-.07,1.71-.17,2.53-.2l2.33-.09c1.49-.09,2.84,0,4,0,.6,0,1.15,0,1.65,0l1.39.08,1.91.13A3.2,3.2,0,0,1,172.76,429.26Z" style="fill:#263238"></path><path d="M102.1,448.4a26.22,26.22,0,0,0-9.21,13.22c5.16-.44,12-2.41,16-5.7a26,26,0,0,0,8.41-12.78A26.17,26.17,0,0,0,102.1,448.4Z" style="fill:#455a64"></path><path d="M99.14,456.47a4.62,4.62,0,0,1,.59-.65c.39-.42,1-1,1.72-1.69a65.3,65.3,0,0,1,6.15-5,62.71,62.71,0,0,1,6.73-4.22c.89-.49,1.63-.86,2.14-1.1a5.46,5.46,0,0,1,.81-.35,4.48,4.48,0,0,1-.76.45c-.49.27-1.21.67-2.09,1.18-1.76,1-4.15,2.48-6.66,4.28s-4.66,3.6-6.18,5c-.76.67-1.37,1.22-1.78,1.61A5.06,5.06,0,0,1,99.14,456.47Z" style="fill:#263238"></path><path d="M121.88,373.07a30,30,0,0,0-18.25,2.7c4.42,4,11.46,8.13,17.33,8.89a29.68,29.68,0,0,0,17.25-3A30.06,30.06,0,0,0,121.88,373.07Z" style="fill:#455a64"></path><path d="M112.82,376.94a6.66,6.66,0,0,1,1,0c.65,0,1.6,0,2.76.12a73,73,0,0,1,9,1.18,71.78,71.78,0,0,1,8.8,2.29c1.11.36,2,.68,2.6.92a4.63,4.63,0,0,1,.92.41,6.58,6.58,0,0,1-1-.28c-.61-.2-1.51-.49-2.62-.82a87.54,87.54,0,0,0-17.76-3.46c-1.16-.11-2.09-.18-2.74-.22A6.55,6.55,0,0,1,112.82,376.94Z" style="fill:#263238"></path><path d="M137.42,399.71a26.2,26.2,0,0,0-14.76,6.49c4.64,2.31,11.53,4.21,16.66,3.49a25.94,25.94,0,0,0,13.84-6.53A26.19,26.19,0,0,0,137.42,399.71Z" style="fill:#455a64"></path><path d="M130.68,405.06a4.37,4.37,0,0,1,.84-.25c.55-.15,1.35-.34,2.35-.54a62.83,62.83,0,0,1,7.87-1.1,63.92,63.92,0,0,1,7.95-.1c1,.06,1.83.12,2.4.18a4.62,4.62,0,0,1,.87.13,5.93,5.93,0,0,1-.88,0l-2.4-.09c-2,0-4.83,0-7.92.19a77.91,77.91,0,0,0-7.85,1c-1,.18-1.8.34-2.36.45A5,5,0,0,1,130.68,405.06Z" style="fill:#263238"></path><path d="M142.9,378.12a26.2,26.2,0,0,1,7-14.53c2.16,4.7,3.82,11.66,2.93,16.76a25.84,25.84,0,0,1-7,13.62A26.21,26.21,0,0,1,142.9,378.12Z" style="fill:#455a64"></path><path d="M148.47,371.56a4.51,4.51,0,0,0-.28.84c-.17.54-.38,1.34-.62,2.33a61.78,61.78,0,0,0-1.35,7.82,63.18,63.18,0,0,0-.37,7.94c0,1,.06,1.84.1,2.41a5.82,5.82,0,0,0,.1.88,4.77,4.77,0,0,0,0-.89c0-.56,0-1.39,0-2.4,0-2,.12-4.83.45-7.9s.84-5.84,1.26-7.82c.21-1,.39-1.79.53-2.34A6.33,6.33,0,0,0,148.47,371.56Z" style="fill:#263238"></path><path d="M133.82,357A25.56,25.56,0,0,1,144.09,345c.84,5,.65,12-1.48,16.57a25.45,25.45,0,0,1-10,11.08A25.6,25.6,0,0,1,133.82,357Z" style="fill:#455a64"></path><path d="M140.74,352.18a4.65,4.65,0,0,0-.48.72c-.29.47-.69,1.17-1.17,2a62,62,0,0,0-3.26,7.05,60.61,60.61,0,0,0-2.35,7.39c-.24,1-.41,1.75-.52,2.3a5.29,5.29,0,0,0-.13.85,4.05,4.05,0,0,0,.24-.83c.14-.53.34-1.31.61-2.26a77,77,0,0,1,2.42-7.35c1.1-2.82,2.27-5.29,3.17-7.06.45-.88.83-1.59,1.09-2.08A4.42,4.42,0,0,0,140.74,352.18Z" style="fill:#263238"></path><path d="M182.23,431.58l-.21-.13-.59-.44-2.25-1.7-1.62-1.24-1.87-1.54c-1.33-1.11-2.89-2.34-4.5-3.83-.82-.72-1.67-1.49-2.56-2.28s-1.77-1.69-2.7-2.57c-1.89-1.76-3.78-3.76-5.8-5.84A178.92,178.92,0,0,1,148,397.59a166.31,166.31,0,0,1-10.33-15.76c-1.39-2.54-2.76-4.93-3.86-7.26-.56-1.16-1.13-2.26-1.63-3.35s-.95-2.14-1.39-3.14c-.92-2-1.59-3.86-2.23-5.48-.31-.81-.6-1.56-.86-2.26l-.65-1.94-.87-2.68c-.09-.29-.16-.52-.22-.7a.72.72,0,0,1-.06-.24,1.17,1.17,0,0,1,.1.23c.06.18.15.4.25.69.23.63.55,1.52,1,2.65.2.58.43,1.22.67,1.92l.9,2.25c.65,1.61,1.34,3.47,2.28,5.44.44,1,.91,2,1.4,3.13s1.09,2.18,1.66,3.33c1.11,2.32,2.49,4.7,3.88,7.23a172.5,172.5,0,0,0,10.33,15.7,182.47,182.47,0,0,0,12.06,14.41c2,2.08,3.88,4.09,5.76,5.85.92.89,1.8,1.77,2.67,2.58l2.55,2.31c1.6,1.49,3.13,2.73,4.45,3.86l1.85,1.57,1.6,1.26,2.2,1.76c.23.19.42.35.57.46Z" style="fill:#263238"></path><path d="M132.87,320.46c-1-2.12-2.61-4.35-5-4.61-2.16-.23-4.17,1.44-5,3.44a15.63,15.63,0,0,0-.85,6.43,19.66,19.66,0,0,0-7.59-12.14c-1.31-1-3.17-1.77-4.5-.82a4.24,4.24,0,0,0-1.32,3.09,50.34,50.34,0,0,0,.3,13.65c-1.79-1.34-3.67-2.72-5.88-3.09s-4.81.62-5.5,2.74a6.61,6.61,0,0,0,.16,3.63,48.18,48.18,0,0,0,10.93,20.62c2.79,3.11,6.16,5.94,10.23,6.86s9.33,1,11.18-2.73l-.68,1A37.5,37.5,0,0,0,132.87,320.46Z" style="fill:#FFCC70"></path><path d="M127.5,359.91a1.93,1.93,0,0,1-.12-.36c-.08-.26-.17-.6-.29-1s-.28-1-.48-1.62-.4-1.35-.69-2.13-.57-1.64-.94-2.54-.77-1.86-1.21-2.86a56.57,56.57,0,0,0-7.4-12.11c-.7-.84-1.35-1.65-2-2.37s-1.28-1.38-1.86-2-1.12-1.1-1.6-1.56-.89-.83-1.25-1.13l-.79-.71a2.67,2.67,0,0,1-.27-.27,1.43,1.43,0,0,1,.31.22l.83.66c.37.29.81.65,1.29,1.1s1.06.94,1.64,1.53,1.24,1.23,1.89,2,1.34,1.51,2,2.36a57.14,57.14,0,0,1,4.12,5.84,58.11,58.11,0,0,1,3.32,6.33c.44,1,.86,2,1.19,2.89s.65,1.77.9,2.56.47,1.51.65,2.15.32,1.18.43,1.63.17.78.23,1.05S127.52,359.9,127.5,359.91Z" style="fill:#263238"></path><path d="M121.28,344.47a3.68,3.68,0,0,1-.08-.77c0-.5-.07-1.22-.1-2.11,0-1.78-.06-4.25,0-7s.31-5.19.5-7c.09-.89.18-1.6.25-2.1a3.9,3.9,0,0,1,.14-.76,2.92,2.92,0,0,1,0,.78c0,.56-.1,1.26-.16,2.1-.13,1.78-.3,4.23-.4,6.95s-.13,5.17-.13,7c0,.84,0,1.54,0,2.11A3.32,3.32,0,0,1,121.28,344.47Z" style="fill:#263238"></path><g style="opacity:0.30000000000000004"><path d="M108.91,329.5s10.4,4.28,12,14.07C120.92,343.57,115.62,334.42,108.91,329.5Z"></path></g><path d="M99.28,386.71c-1.5-.57-3.33-.94-4.61,0a3.64,3.64,0,0,0-.9,4.07,10.74,10.74,0,0,0,2.59,3.6,13.4,13.4,0,0,0-9.45-2.48c-1.11.13-2.41.61-2.62,1.7a2.89,2.89,0,0,0,.79,2.15,34,34,0,0,0,6.53,6.64,9.76,9.76,0,0,0-4.36,1.22,3.33,3.33,0,0,0-1.45,3.94,4.54,4.54,0,0,0,1.78,1.72,32.87,32.87,0,0,0,15.08,5.13c2.84.24,5.84.07,8.29-1.38s5.11-3.86,4.28-6.59l.1.79A25.6,25.6,0,0,0,99.28,386.71Z" style="fill:#FFCC70"></path><path d="M115.08,408.81l-.22-.11-.63-.38c-.27-.16-.6-.36-1-.58s-.83-.48-1.33-.73-1.05-.55-1.66-.82-1.25-.57-1.94-.86A38.49,38.49,0,0,0,99,402.78c-.74-.09-1.45-.19-2.11-.23s-1.28-.09-1.84-.11-1.08,0-1.53,0-.83,0-1.15,0l-.73,0h-.25a.79.79,0,0,1,.25,0l.73-.06c.31,0,.7-.06,1.15-.06s1,0,1.53,0,1.19,0,1.85.09,1.38.12,2.12.21a36.92,36.92,0,0,1,9.4,2.56c.69.3,1.35.58,1.94.88s1.15.58,1.65.85.94.54,1.33.77.71.43,1,.61l.61.41A.85.85,0,0,1,115.08,408.81Z" style="fill:#263238"></path><path d="M104.77,404.06a2.39,2.39,0,0,1-.4-.35c-.25-.23-.61-.57-1-1-.86-.86-2-2.08-3.25-3.48s-2.27-2.72-3-3.69c-.37-.48-.66-.88-.86-1.16a3.41,3.41,0,0,1-.29-.45,3,3,0,0,1,.36.4l.91,1.12c.76.94,1.83,2.24,3,3.64s2.36,2.63,3.19,3.51l1,1A2.33,2.33,0,0,1,104.77,404.06Z" style="fill:#263238"></path><g style="opacity:0.30000000000000004"><path d="M91.61,402.41s7.17-2.74,12.56,1.37C104.17,403.78,97.25,401.72,91.61,402.41Z"></path></g><path d="M349,442a26.21,26.21,0,0,1-1.21,16.08c-3.72-3.6-7.8-9.48-8.83-14.55a25.08,25.08,0,0,1,1.4-15A25.77,25.77,0,0,1,349,442Z" style="fill:#455a64"></path><path d="M346.21,450.18a5.93,5.93,0,0,0,0-.89c-.05-.56-.14-1.38-.28-2.39a63.64,63.64,0,0,0-4.14-15.31c-.39-.94-.72-1.69-1-2.2a6.69,6.69,0,0,0-.41-.79,4.7,4.7,0,0,0,.3.83c.22.53.52,1.29.89,2.24.72,1.89,1.65,4.54,2.46,7.53s1.34,5.73,1.67,7.73c.16,1,.28,1.82.36,2.38A4.78,4.78,0,0,0,346.21,450.18Z" style="fill:#263238"></path><path d="M372,448.17a26.25,26.25,0,0,1-1.2,16.07c-3.73-3.6-7.81-9.47-8.84-14.55a26,26,0,0,1,1.54-15.22A26.19,26.19,0,0,1,372,448.17Z" style="fill:#455a64"></path><path d="M369.21,456.3a4.49,4.49,0,0,0,0-.88c0-.57-.14-1.39-.27-2.39a64.87,64.87,0,0,0-1.6-7.79,62.86,62.86,0,0,0-2.55-7.52c-.39-.94-.72-1.69-1-2.21a4.24,4.24,0,0,0-.41-.78,6,6,0,0,0,.31.83c.21.53.52,1.29.88,2.24a77.7,77.7,0,0,1,2.46,7.52c.8,3,1.34,5.74,1.67,7.74.16,1,.29,1.81.36,2.37A6.21,6.21,0,0,0,369.21,456.3Z" style="fill:#263238"></path><path d="M386.66,433.32a26.27,26.27,0,0,0,9.56-13c-5.17.3-12.09,2.09-16.18,5.27a25.93,25.93,0,0,0-8.76,12.55A26.23,26.23,0,0,0,386.66,433.32Z" style="fill:#455a64"></path><path d="M389.84,425.32a5.32,5.32,0,0,1-.61.65c-.4.4-1,1-1.77,1.63a63.05,63.05,0,0,1-13.12,8.91c-.91.46-1.65.81-2.17,1a6.25,6.25,0,0,1-.82.33,4.07,4.07,0,0,1,.77-.44c.5-.25,1.23-.63,2.12-1.12a78.55,78.55,0,0,0,6.78-4.1c2.55-1.74,4.75-3.47,6.31-4.78.77-.65,1.4-1.18,1.82-1.56A5.6,5.6,0,0,1,389.84,425.32Z" style="fill:#263238"></path><path d="M364.58,425.67a26.25,26.25,0,0,0,9.56-13c-5.17.3-12.09,2.1-16.18,5.27a26,26,0,0,0-8.76,12.55A26.24,26.24,0,0,0,364.58,425.67Z" style="fill:#455a64"></path><path d="M367.76,417.67a5.85,5.85,0,0,1-.61.64c-.4.4-1,1-1.77,1.64a64.1,64.1,0,0,1-13.12,8.91c-.91.46-1.65.81-2.17,1a5.22,5.22,0,0,1-.82.32,4.52,4.52,0,0,1,.77-.43l2.12-1.12a78.55,78.55,0,0,0,6.78-4.1c2.55-1.74,4.75-3.47,6.31-4.78l1.82-1.56A5.6,5.6,0,0,1,367.76,417.67Z" style="fill:#263238"></path><path d="M324.06,428.47a4.28,4.28,0,0,0,.67,0l1.91-.06,1.39-.05h1.64c1.18,0,2.53,0,4,.09l2.33.11c.81.05,1.64.15,2.51.23,1.75.12,3.59.41,5.54.68a92.38,92.38,0,0,1,24.38,7.33c1.77.85,3.47,1.63,5,2.48.77.42,1.53.79,2.23,1.2l2,1.19c1.3.73,2.4,1.5,3.39,2.14.5.32,1,.61,1.38.9l1.12.8,1.57,1.11a3.82,3.82,0,0,0,.56.36,4.21,4.21,0,0,0-.51-.43l-1.53-1.16-1.1-.83c-.41-.3-.87-.6-1.36-.94-1-.65-2.08-1.44-3.37-2.19l-2-1.21c-.7-.42-1.45-.81-2.22-1.23-1.52-.87-3.22-1.66-5-2.52a89.4,89.4,0,0,0-24.49-7.36c-1.95-.26-3.81-.54-5.56-.65-.87-.07-1.71-.16-2.52-.2l-2.34-.09c-1.49-.09-2.84,0-4,0-.59,0-1.14,0-1.65,0l-1.38.09-1.92.13A4.41,4.41,0,0,0,324.06,428.47Z" style="fill:#263238"></path><path d="M394.72,447.61a26.19,26.19,0,0,1,9.21,13.23c-5.16-.45-12-2.42-16-5.71a26,26,0,0,1-8.42-12.78A26.17,26.17,0,0,1,394.72,447.61Z" style="fill:#455a64"></path><path d="M397.69,455.69a5,5,0,0,0-.6-.66c-.39-.41-1-1-1.72-1.68a63.19,63.19,0,0,0-12.87-9.26c-.9-.49-1.63-.86-2.15-1.1a5,5,0,0,0-.81-.35,4.48,4.48,0,0,0,.76.45c.5.27,1.21.67,2.09,1.18,1.76,1,4.15,2.48,6.66,4.28a77.77,77.77,0,0,1,6.18,4.95c.76.67,1.37,1.23,1.78,1.61A4.63,4.63,0,0,0,397.69,455.69Z" style="fill:#263238"></path><path d="M374.94,372.28a30.09,30.09,0,0,1,18.25,2.7c-4.41,4-11.45,8.14-17.33,8.89a29.75,29.75,0,0,1-17.25-3A30,30,0,0,1,374.94,372.28Z" style="fill:#455a64"></path><path d="M384,376.15a6.1,6.1,0,0,0-1,0c-.65,0-1.59,0-2.75.11a72.88,72.88,0,0,0-9,1.18,73.65,73.65,0,0,0-8.8,2.29c-1.1.37-2,.69-2.59.93a5,5,0,0,0-.93.4,6.2,6.2,0,0,0,1-.28c.62-.2,1.51-.49,2.62-.82a89.22,89.22,0,0,1,8.8-2.19c3.47-.67,6.65-1.06,9-1.27,1.15-.1,2.09-.18,2.74-.22A6.5,6.5,0,0,0,384,376.15Z" style="fill:#263238"></path><path d="M359.41,398.92a26.21,26.21,0,0,1,14.75,6.49c-4.63,2.32-11.53,4.21-16.66,3.49a26,26,0,0,1-13.84-6.53A26.2,26.2,0,0,1,359.41,398.92Z" style="fill:#455a64"></path><path d="M366.15,404.27a5.07,5.07,0,0,0-.85-.25c-.55-.15-1.35-.33-2.35-.54a63.06,63.06,0,0,0-7.87-1.09,64,64,0,0,0-7.94-.11c-1,.06-1.84.12-2.4.19a5.41,5.41,0,0,0-.88.12,4.67,4.67,0,0,0,.89,0l2.4-.09c2-.05,4.83,0,7.91.19s5.86.65,7.85,1c1,.17,1.81.33,2.36.44A4.9,4.9,0,0,0,366.15,404.27Z" style="fill:#263238"></path><path d="M353.93,377.33a26.18,26.18,0,0,0-7-14.53c-2.15,4.71-3.82,11.66-2.93,16.77a26,26,0,0,0,7,13.61A26.2,26.2,0,0,0,353.93,377.33Z" style="fill:#455a64"></path><path d="M348.36,370.77a4.91,4.91,0,0,1,.28.84c.16.54.38,1.34.62,2.33a65.46,65.46,0,0,1,1.35,7.83,64.71,64.71,0,0,1,.36,7.93c0,1-.06,1.84-.1,2.41a4.53,4.53,0,0,1-.1.88,6.11,6.11,0,0,1,0-.88c0-.57,0-1.39,0-2.41A77,77,0,0,0,349.05,374c-.21-1-.39-1.79-.52-2.34A4.67,4.67,0,0,1,348.36,370.77Z" style="fill:#263238"></path><path d="M363,356.17a25.59,25.59,0,0,0-10.26-11.95c-.85,5-.65,12,1.48,16.57a25.33,25.33,0,0,0,10,11.08A25.68,25.68,0,0,0,363,356.17Z" style="fill:#455a64"></path><path d="M356.08,351.39a4.65,4.65,0,0,1,.48.72c.3.47.7,1.17,1.17,2a62.48,62.48,0,0,1,5.62,14.45c.23,1,.41,1.75.51,2.29a5.15,5.15,0,0,1,.13.86,6.07,6.07,0,0,1-.24-.83c-.13-.54-.34-1.32-.6-2.27-.53-1.91-1.33-4.53-2.43-7.35a76.67,76.67,0,0,0-3.17-7.05c-.45-.89-.82-1.6-1.09-2.08A6,6,0,0,1,356.08,351.39Z" style="fill:#263238"></path><path d="M314.59,430.8a1,1,0,0,0,.21-.14l.59-.43,2.25-1.71,1.62-1.23,1.87-1.54c1.34-1.12,2.89-2.35,4.5-3.83l2.57-2.29c.88-.81,1.76-1.68,2.7-2.57,1.88-1.76,3.77-3.76,5.79-5.84a181,181,0,0,0,12.12-14.42,167.32,167.32,0,0,0,10.32-15.75c1.39-2.55,2.76-4.94,3.86-7.27.56-1.16,1.14-2.26,1.64-3.35l1.38-3.14c.92-2,1.6-3.86,2.23-5.48l.87-2.26.64-1.93c.37-1.15.67-2.05.88-2.68.09-.29.16-.53.21-.7a.75.75,0,0,0,.06-.25s0,.08-.1.23-.14.41-.25.69c-.23.63-.54,1.52-.95,2.66-.2.57-.42,1.22-.67,1.92s-.57,1.44-.89,2.24c-.66,1.61-1.35,3.47-2.28,5.45l-1.41,3.12c-.51,1.08-1.08,2.18-1.65,3.34-1.11,2.32-2.49,4.69-3.88,7.23a176.07,176.07,0,0,1-10.33,15.7A184.09,184.09,0,0,1,336.42,411c-2,2.08-3.88,4.09-5.75,5.85-.93.89-1.8,1.77-2.68,2.58l-2.54,2.31c-1.6,1.49-3.14,2.74-4.46,3.87l-1.85,1.56-1.59,1.26-2.21,1.76-.56.47A.88.88,0,0,0,314.59,430.8Z" style="fill:#263238"></path><path d="M364,319.67c1-2.11,2.6-4.35,4.94-4.61,2.17-.23,4.18,1.44,5.05,3.44a15.46,15.46,0,0,1,.85,6.43,19.71,19.71,0,0,1,7.59-12.14c1.32-1,3.18-1.77,4.5-.82a4.22,4.22,0,0,1,1.32,3.09,49.55,49.55,0,0,1-.3,13.65c1.8-1.34,3.68-2.71,5.88-3.09s4.81.62,5.51,2.75a6.68,6.68,0,0,1-.16,3.62,48.4,48.4,0,0,1-10.93,20.62c-2.79,3.11-6.17,5.94-10.24,6.86s-9.32,1-11.18-2.73l.68,1A37.54,37.54,0,0,1,364,319.67Z" style="fill:#FFCC70"></path><path d="M369.32,359.12a2,2,0,0,0,.12-.35l.3-1c.12-.45.27-1,.47-1.62s.41-1.35.69-2.13.57-1.63.94-2.54.77-1.85,1.21-2.86a61.32,61.32,0,0,1,3.32-6.28,62.24,62.24,0,0,1,4.09-5.83c.69-.84,1.34-1.65,2-2.36s1.27-1.39,1.85-2,1.13-1.1,1.6-1.55.9-.84,1.25-1.14l.8-.71c.18-.17.27-.26.26-.27a2.48,2.48,0,0,0-.3.22l-.84.67c-.37.28-.8.65-1.29,1.09s-1.06.94-1.64,1.53-1.24,1.23-1.89,2-1.34,1.52-2,2.36a56.71,56.71,0,0,0-4.13,5.84,59.92,59.92,0,0,0-3.32,6.33c-.43,1-.85,2-1.18,2.89s-.65,1.77-.91,2.56-.46,1.52-.65,2.15-.32,1.18-.42,1.64-.18.77-.24,1A1.71,1.71,0,0,0,369.32,359.12Z" style="fill:#263238"></path><path d="M375.54,343.69a4.25,4.25,0,0,0,.09-.78c0-.49.06-1.22.09-2.11,0-1.78.07-4.25,0-7s-.3-5.18-.49-7c-.1-.88-.19-1.6-.26-2.1a3.9,3.9,0,0,0-.14-.76,3.32,3.32,0,0,0,0,.78l.15,2.1c.13,1.78.3,4.24.4,6.95s.13,5.18.13,7c0,.84,0,1.55,0,2.11A4.53,4.53,0,0,0,375.54,343.69Z" style="fill:#263238"></path><g style="opacity:0.30000000000000004"><path d="M387.91,328.71s-10.4,4.28-12,14.07C375.9,342.78,381.21,333.63,387.91,328.71Z"></path></g><path d="M397.54,385.92c1.5-.56,3.33-.94,4.61,0a3.61,3.61,0,0,1,.9,4.07,10.6,10.6,0,0,1-2.59,3.59,13.47,13.47,0,0,1,9.46-2.48c1.11.13,2.4.61,2.62,1.7a2.88,2.88,0,0,1-.79,2.15,34.28,34.28,0,0,1-6.54,6.64,9.76,9.76,0,0,1,4.36,1.22,3.33,3.33,0,0,1,1.45,3.94,4.53,4.53,0,0,1-1.77,1.73,33,33,0,0,1-15.08,5.12c-2.84.24-5.84.07-8.3-1.38s-5.1-3.86-4.27-6.59l-.11.79A25.6,25.6,0,0,1,397.54,385.92Z" style="fill:#FFCC70"></path><path d="M381.74,408s.08,0,.23-.11l.62-.37c.27-.17.6-.37,1-.59s.83-.48,1.34-.73,1.05-.55,1.65-.82,1.25-.56,1.94-.86a39.64,39.64,0,0,1,9.35-2.55c.74-.09,1.44-.19,2.1-.23s1.28-.09,1.85-.11,1.07,0,1.52,0l1.15,0,.73,0a1,1,0,0,0,.26,0l-.26,0-.72-.06c-.32,0-.71-.05-1.16-.06s-1,0-1.53,0-1.19,0-1.85.09-1.38.13-2.12.21a39.76,39.76,0,0,0-4.78,1,42.79,42.79,0,0,0-4.62,1.6c-.68.3-1.34.57-1.94.88s-1.15.57-1.65.85-.93.53-1.32.76-.72.44-1,.61l-.61.41Z" style="fill:#263238"></path><path d="M392.05,403.27a2,2,0,0,0,.41-.34c.25-.23.6-.58,1-1,.86-.86,2-2.08,3.25-3.48s2.27-2.72,3-3.69c.37-.48.66-.88.85-1.16a2.65,2.65,0,0,0,.29-.44,2.51,2.51,0,0,0-.36.39l-.9,1.12c-.77.94-1.84,2.24-3.06,3.64s-2.36,2.63-3.19,3.52l-1,1.05A3.23,3.23,0,0,0,392.05,403.27Z" style="fill:#263238"></path><g style="opacity:0.30000000000000004"><path d="M405.21,401.62S398,398.88,392.66,403C392.66,403,399.58,400.93,405.21,401.62Z"></path></g></g><g id="freepik--Device--inject-2"><path d="M313.85,476l-129.16-.08a28.12,28.12,0,0,1-28.11-28.14L156.64,124a28.13,28.13,0,0,1,28.15-28.13l129.15.07a28.14,28.14,0,0,1,28.12,28.14L342,447.85A28.14,28.14,0,0,1,313.85,476Z" style="fill:#263238"></path><path d="M313.81,107.38l-25,0a6.21,6.21,0,0,0-6.08,6.35v4.55a6.22,6.22,0,0,1-6.08,6.35l-48.81,0a6.22,6.22,0,0,1-6.08-6.36v-4.54a6.22,6.22,0,0,0-6.08-6.36H184.91A19.7,19.7,0,0,0,165.2,127l-.06,316a19.7,19.7,0,0,0,19.69,19.71l128.89.07a19.7,19.7,0,0,0,19.72-19.7l.06-316A19.69,19.69,0,0,0,313.81,107.38Z" style="fill:#fff"></path></g><g id="freepik--Character--inject-2"><path d="M221.45,191.29a5.41,5.41,0,0,0-4.22,3.6,15.93,15.93,0,0,0-.76,5.76q-.3,37.5-.61,75l35.41.13c-6.66-23.52-1.12-49.11-7.23-72.78-1-4-2.44-8-5.21-11s-7.16-4.85-11.05-3.59" style="fill:#263238"></path><path d="M226.63,156.54c7.85-9.59,18.39-15.12,30.79-15.32,7.29-.12,10.12,1.46,15.57,2.86a21.21,21.21,0,0,1,12.08,8.35c3.51,5,6.44,10.63,7.1,16.71.7,6.32,1.39,12.69.91,19,0,.06,0,.13,0,.19a22,22,0,0,1-18.27,19.85l-3.81.66c-8.92.3-18,.6-26.65-1.44s-17.13-6.71-21.78-14.32C216.09,182.54,218.78,166.14,226.63,156.54Z" style="fill:#263238"></path><path d="M271,235.08c-.11-5.66-.24-10.31-.24-10.28s13.17-1.45,16.8-18.33c1.81-8.39,2.15-22.3,2.06-33.69-.08-10.25-8.81-24.2-21.47-24.25l-5.62-.65L241,156.44a6,6,0,0,0-5.69,5.78l-.65,72.09,20.81,50.53L270.4,264.6Z" style="fill:#a26760"></path><path d="M262.25,202.52a3.59,3.59,0,0,1,1.24-2.21,3.67,3.67,0,0,1,4.45-.26,4.91,4.91,0,0,1,1.87,4.62h0a4.44,4.44,0,0,1-3.2,1.85,4,4,0,0,1-.6,0,4,4,0,0,1-2.7-1.07A3.53,3.53,0,0,1,262.25,202.52Z" style="fill:#7b4b45"></path><path d="M282.11,185.94a2.19,2.19,0,0,1-2.23,2.09,2.09,2.09,0,0,1-2.14-2.09,2.19,2.19,0,0,1,2.23-2.09A2.09,2.09,0,0,1,282.11,185.94Z" style="fill:#263238"></path><path d="M285.43,179.1c-.29.27-1.88-1-4.23-1.16s-4.13.95-4.37.65c-.12-.13.18-.63,1-1.14a6,6,0,0,1,3.53-.87,5.78,5.78,0,0,1,3.34,1.28C285.35,178.46,285.57,179,285.43,179.1Z" style="fill:#263238"></path><path d="M270.66,196.91c0-.14,1.47-.31,3.85-.48.61,0,1.18-.12,1.31-.52a3,3,0,0,0-.31-1.8c-.48-1.49-1-3-1.52-4.67-2.11-6.64-3.6-12.09-3.33-12.17s2.19,5.23,4.3,11.87l1.45,4.69a3.45,3.45,0,0,1,.18,2.37,1.54,1.54,0,0,1-1,.83,4.33,4.33,0,0,1-1,.08A15.65,15.65,0,0,1,270.66,196.91Z" style="fill:#263238"></path><path d="M270.76,224.8a43.39,43.39,0,0,1-22.47-7.33s5.43,12.13,22.55,11.47Z" style="fill:#7b4b45"></path><path d="M263.66,198.15c.38,0,.24,2.55,2.33,4.48s4.81,1.8,4.81,2.16c0,.16-.63.46-1.78.43a6.42,6.42,0,0,1-4-1.66,5.52,5.52,0,0,1-1.79-3.74C263.16,198.74,263.48,198.13,263.66,198.15Z" style="fill:#263238"></path><path d="M285,170.25c-.43.55-2.2.07-4.32.13s-3.88.51-4.31,0c-.2-.26.06-.81.83-1.35a6.38,6.38,0,0,1,3.47-1,6.22,6.22,0,0,1,3.48.93C284.88,169.44,285.15,170,285,170.25Z" style="fill:#263238"></path><path d="M256.09,185.78a2.19,2.19,0,0,0,2.07,2.25,2.1,2.1,0,0,0,2.29-1.94,2.19,2.19,0,0,0-2.07-2.24A2.09,2.09,0,0,0,256.09,185.78Z" style="fill:#263238"></path><path d="M253.23,178.26c.26.29,1.94-.9,4.29-.86s4.06,1.26,4.32,1c.13-.12-.14-.64-.88-1.2a6,6,0,0,0-3.45-1.13,5.75,5.75,0,0,0-3.43,1C253.35,177.62,253.1,178.13,253.23,178.26Z" style="fill:#263238"></path><path d="M251.88,173.21c.45.54,2.28,0,4.46,0s4,.43,4.46-.12c.19-.27-.09-.81-.89-1.33a6.75,6.75,0,0,0-3.61-.94,6.65,6.65,0,0,0-3.58,1C251.94,172.4,251.68,173,251.88,173.21Z" style="fill:#263238"></path><path d="M238.23,190.83c.07-1.27-1.23-4.34-2.48-4.6-3.31-.71-9.35-.77-9.88,7.72-.71,11.6,11.09,9.93,11.13,9.59S238,195.21,238.23,190.83Z" style="fill:#a26760"></path><path d="M234.06,199.11c-.05,0-.21.13-.56.26a2,2,0,0,1-1.52-.06c-1.2-.52-2.11-2.53-2-4.63a6.69,6.69,0,0,1,.75-2.86,2.34,2.34,0,0,1,1.61-1.46,1,1,0,0,1,1.16.63c.14.33,0,.56.11.58s.26-.17.2-.66a1.32,1.32,0,0,0-.41-.75,1.52,1.52,0,0,0-1.1-.37,2.86,2.86,0,0,0-2.23,1.67,7,7,0,0,0-.9,3.19c-.06,2.35,1,4.61,2.65,5.2a2.16,2.16,0,0,0,1.86-.2C234,199.39,234.1,199.13,234.06,199.11Z" style="fill:#7b4b45"></path><path d="M235.28,186.26l2.95,3.06c12.73-12.19,37.61-42.7,36.23-40.89a37.15,37.15,0,0,0-18.19-2c-9.47,1.61-27.43,6.35-27.15,17.52S235.28,186.26,235.28,186.26Z" style="fill:#263238"></path><path d="M220.15,182.41a8.4,8.4,0,0,1,.09-2.63,13.17,13.17,0,0,1,3.23-6.37,19.69,19.69,0,0,1,3.76-3.26,23.78,23.78,0,0,1,5.13-2.52c3.79-1.37,8.17-2.08,12.65-3.08a49.93,49.93,0,0,0,6.42-1.87,48.14,48.14,0,0,0,14.4-8.5,46.53,46.53,0,0,0,5.05-5c.57-.63,1-1.15,1.26-1.48a4.05,4.05,0,0,1,.45-.51,2.65,2.65,0,0,1-.37.57c-.27.36-.64.9-1.19,1.55a41,41,0,0,1-5,5.17,47,47,0,0,1-8.73,6.09,50.53,50.53,0,0,1-5.73,2.61,51,51,0,0,1-6.49,1.9c-4.51,1-8.85,1.69-12.6,3a23.19,23.19,0,0,0-5.05,2.43,19,19,0,0,0-3.72,3.15,13.21,13.21,0,0,0-3.31,6.16A23.06,23.06,0,0,0,220.15,182.41Z" style="fill:#455a64"></path><path d="M256.09,168.19a1.78,1.78,0,0,1-.3.35,9.39,9.39,0,0,1-1,.86,13.75,13.75,0,0,1-4.42,2.06,32.12,32.12,0,0,1-7.17,1,39.84,39.84,0,0,0-8.68,1.06,17.49,17.49,0,0,0-4.12,1.77,18.43,18.43,0,0,0-3.37,2.5,19.66,19.66,0,0,0-4.27,5.65,23.11,23.11,0,0,0-2,6.26,1.61,1.61,0,0,1,0-.46,12,12,0,0,1,.16-1.32,17.32,17.32,0,0,1,1.5-4.64,19.25,19.25,0,0,1,4.28-5.84,18.15,18.15,0,0,1,3.43-2.59,17.36,17.36,0,0,1,4.24-1.83,37.93,37.93,0,0,1,8.8-1,33.66,33.66,0,0,0,7.09-.85,14.47,14.47,0,0,0,4.41-1.87C255.6,168.6,256.06,168.15,256.09,168.19Z" style="fill:#455a64"></path><path d="M222.59,222.52a4.73,4.73,0,0,1-.13-1.07c-.05-.69-.1-1.69-.14-2.92-.08-2.47-.12-5.88,0-9.65s.27-7.17.47-9.63c.09-1.23.19-2.22.27-2.91a4.94,4.94,0,0,1,.17-1.06,3.72,3.72,0,0,1,0,1.07c0,.81-.06,1.78-.11,2.92-.1,2.47-.23,5.87-.31,9.63s-.1,7.16-.11,9.62c0,1.15,0,2.12,0,2.92A4.29,4.29,0,0,1,222.59,222.52Z" style="fill:#455a64"></path><path d="M230.86,225.57a3.4,3.4,0,0,1-.45-.8,23.2,23.2,0,0,1-.95-2.27,36,36,0,0,1-2-16.07c.11-1,.24-1.87.36-2.44a3,3,0,0,1,.24-.88c.08,0-.11,1.29-.24,3.35a42.63,42.63,0,0,0,2,15.92C230.44,224.35,230.94,225.53,230.86,225.57Z" style="fill:#455a64"></path><path d="M226.15,197.73a4.2,4.2,0,0,1-.85-.68,8.43,8.43,0,0,1-.9-.9,13,13,0,0,1-1.07-1.31,20.08,20.08,0,0,1-2.19-3.83,27.57,27.57,0,0,1-1.63-5.13,33.21,33.21,0,0,1-.59-9.74,24.49,24.49,0,0,1,.4-2.93,3.88,3.88,0,0,1,.27-1.05c.09,0-.18,1.53-.31,4a37.38,37.38,0,0,0,.74,9.61,28.53,28.53,0,0,0,1.56,5,21.07,21.07,0,0,0,2,3.8C225,196.66,226.23,197.65,226.15,197.73Z" style="fill:#455a64"></path><path d="M261.48,193c0,1.84-2.72,3.34-6.08,3.34s-6.08-1.5-6.08-3.34,2.72-3.34,6.08-3.34S261.48,191.16,261.48,193Z" style="fill:#995f5b"></path><path d="M288.23,191.94c0,1.84-2.05,3.34-4.57,3.34s-4.56-1.5-4.56-3.34,2-3.34,4.56-3.34S288.23,190.09,288.23,191.94Z" style="fill:#995f5b"></path><path d="M236.67,232.83c-1.36.34-32.65,10.94-32.65,10.94l4.19,62.31,8.17,21.29-3.93,25.49L293,362.92l-2-37.07,14.59-80.74-34.57-10S256.72,250.2,251,250.2,236.67,232.83,236.67,232.83Z" style="fill:#a26760"></path><path d="M209.4,241.94s-14.06-1.31-20.18,17.31-14.38,56.24-14.38,56.24l35.7-2.85-2.21-40.16Z" style="fill:#455a64"></path><path d="M225.84,236.35l31.67,64v40.55l-46.22.63,2.37-17.94s-11.21-12.41-13.42-24.42S204,242.68,204,242.68Z" style="fill:#455a64"></path><path d="M225.42,251.83a2.79,2.79,0,0,0-5.3.42c-.86,3.57-.48,7.66.1,11.37,1.61,10.38,3.52,23.84,6.33,34A66.47,66.47,0,0,0,225.42,251.83Z" style="fill:#fff"></path><path d="M297.81,241.94s14.05-1.31,20.18,17.31,13.52,55.25,13.52,55.25l-38-1,5.38-41Z" style="fill:#455a64"></path><path d="M282.36,237.75l-32.67,63.64v39.53h45.1l-1.36-17.7a118.82,118.82,0,0,0,7.43-23.63c2.2-12-.66-57.55-.66-57.55Z" style="fill:#455a64"></path><g style="opacity:0.2"><path d="M270.22,309.28c-3.72-6.48-8.6-13.16-15.85-14.94-4.58-1.13-9.44-.09-13.83,1.65-5.42,2.14-10.57,5.5-13.61,10.48-6.28,10.3-1.93,24.19-6.84,35.21v1.81c9.85-7.39,15.36-15.34,17.18-28.16.45-3.24,3.49-5.95,6.63-6.89,4.22-1.27,8.44,2,11.07,5.54,4.39,5.94,6.77,13.15,10.93,19.26s11.19,11.3,18.43,9.83A146.53,146.53,0,0,0,270.22,309.28Z"></path></g><path d="M286.81,286.34c0-.26-.08-.53-.14-.79-.78-3.91-6.61-4.38-7.71-.55-3.82,13.25-4.53,30.8-2,42.65a204.87,204.87,0,0,0,9.11-31.85A28.54,28.54,0,0,0,286.81,286.34Z" style="fill:#fff"></path><path d="M277.67,334c-7.76-8.93-21.9-15.57-33.73-15.39-1,0-2.24.17-2.77,1.05a2.2,2.2,0,0,0,.55,2.58,6.33,6.33,0,0,0,2.51,1.26c10.45,3.44,22.94,7.22,33.44,10.5Z" style="fill:#fff"></path><path d="M228.15,298.52c-7.61-9-26.27-17.35-38-16.19-2.21.21-5,1.25-4.94,3.47s2.46,3.14,4.48,3.68c10.27,2.71,28.21,6.33,38.48,9" style="fill:#fff"></path><path d="M207.48,269.87a11.17,11.17,0,0,1-.34,1.75c-.26,1.11-.59,2.74-1,4.75s-.71,4.43-1,7.12-.43,5.66-.45,8.78.18,6.09.42,8.78.61,5.1,1,7.12.68,3.64.94,4.75a11.17,11.17,0,0,1,.34,1.75,12.25,12.25,0,0,1-.53-1.7c-.32-1.1-.71-2.72-1.11-4.73s-.79-4.44-1.09-7.14-.46-5.69-.47-8.83.21-6.13.49-8.83.68-5.13,1.1-7.14.8-3.63,1.13-4.73A12.25,12.25,0,0,1,207.48,269.87Z" style="fill:#263238"></path><path d="M312.84,270.07C305,279,299,293.78,298.3,305l-.18.38a66,66,0,0,0,11.73-14.2c2.89-4.67,5.82-13.45,5.89-20A1.65,1.65,0,0,0,312.84,270.07Z" style="fill:#fff"></path><path d="M293.42,269.61a1.64,1.64,0,0,1,.17.48l.4,1.4c.33,1.21.79,3,1.32,5.17A115.57,115.57,0,0,1,298.36,294a56.75,56.75,0,0,1-1,17.56,37.38,37.38,0,0,1-1.53,5.12c-.21.6-.43,1-.55,1.35a1.67,1.67,0,0,1-.24.45s.2-.67.6-1.86a48.48,48.48,0,0,0,1.36-5.14,59.92,59.92,0,0,0,.85-17.44,132.8,132.8,0,0,0-2.89-17.3c-.48-2.14-.87-3.9-1.16-5.2l-.3-1.42A1.92,1.92,0,0,1,293.42,269.61Z" style="fill:#263238"></path><path d="M270.84,226.39c6.29.56,11.77,5,14.9,10.48s4.23,11.89,4.65,18.19.23,12.65,1,18.91c-.64.42-4.82.42-4.82.42l-2.79-9.76-1.24,9.74c-1.87.05-9.08,0-10.69,0,0,0-1.17-32.66-1-48" style="fill:#263238"></path><path d="M282.71,263.16c-.1,0-.06-1.82-.32-4.74a51.92,51.92,0,0,0-2.31-11.17,51.31,51.31,0,0,0-4.77-10.37c-1.51-2.51-2.63-3.95-2.55-4a5.6,5.6,0,0,1,.84,1c.52.63,1.22,1.61,2,2.84a45.63,45.63,0,0,1,7.12,21.71,30.94,30.94,0,0,1,.06,3.49A6.53,6.53,0,0,1,282.71,263.16Z" style="fill:#455a64"></path><path d="M285.69,353.38l-73.83-.86-1.08,10.78S190.3,388.55,187.59,406c-2,12.94-4.14,44.48-6.2,56.5a54.57,54.57,0,0,0,9.54.38l123.12.19c3.78,0,7.95-.95,6.89-4.57L293,363.72l-.5-9.76Z" style="fill:#455a64"></path><path d="M293.64,364.14a7.91,7.91,0,0,1-.84.05l-2.41,0-8.88,0c-7.5,0-17.86-.11-29.3-.29l-29.29-.44-8.88-.13-2.41-.05a4.67,4.67,0,0,1-.85-.06,5.58,5.58,0,0,1,.85-.05l2.41,0,8.88,0c7.5,0,17.86.11,29.3.29l29.29.44,8.88.13,2.41.05A4.6,4.6,0,0,1,293.64,364.14Z" style="fill:#263238"></path><path d="M208.08,425.67c10.14,5.82,37.51,13.19,49.18,12.6-7.81-9.88-35.2-22.08-47.39-25.25" style="fill:#fff"></path><path d="M261.36,431.1c-4.61-8-10.26-15.7-12.37-24.68s-1.34-19.07,4.2-26.44a75.32,75.32,0,0,1,8.17,51.12" style="fill:#fff"></path><path d="M272.79,431.88c2.15-11,7.72-20.88,16.56-27.73a8.68,8.68,0,0,1,2.53-1.5,3.1,3.1,0,0,1,4.31,3.16,8.34,8.34,0,0,1-.87,3.29,40.35,40.35,0,0,1-9.61,13,100.29,100.29,0,0,1-12.92,9.81" style="fill:#fff"></path><path d="M205.14,462.82a2.28,2.28,0,0,1,0-.25v-.76c0-.71,0-1.68.07-2.92.07-2.52.23-6.18.52-10.7s.72-9.89,1.34-15.84,1.48-12.47,2.54-19.29,2.29-13.3,3.5-19.16,2.45-11.1,3.57-15.49,2.07-7.91,2.79-10.34c.35-1.18.62-2.12.82-2.8.1-.29.17-.53.23-.72a1.13,1.13,0,0,1,.1-.24,2.46,2.46,0,0,1-.05.26c0,.19-.1.43-.18.73-.17.69-.42,1.63-.73,2.82-.65,2.44-1.56,6-2.62,10.38s-2.25,9.65-3.46,15.5-2.38,12.32-3.46,19.14-1.9,13.33-2.57,19.27-1.13,11.3-1.45,15.81-.56,8.16-.68,10.68c-.07,1.23-.13,2.21-.17,2.91,0,.31,0,.56-.06.76A.61.61,0,0,1,205.14,462.82Z" style="fill:#263238"></path><rect x="236.72" y="250.07" width="29.09" height="48.65" rx="3.49" style="fill:#263238"></rect><path d="M241.65,263.19h0a2,2,0,0,1-2-2V256a2,2,0,0,1,2-2h0a2,2,0,0,1,2,2v5.17A2.05,2.05,0,0,1,241.65,263.19Z" style="fill:#455a64"></path><path d="M243.35,256.25a1.62,1.62,0,1,1-1.62-1.61A1.62,1.62,0,0,1,243.35,256.25Z" style="fill:#e0e0e0"></path><path d="M185.57,314.62s1.75,17.78,5.11,28.37c3.15,9.92,15.83,18.77,26,6.11s16.92-41.17,16.92-41.17l-13.71-7.18-11.43,17.19L207,312.81Z" style="fill:#a26760"></path><path d="M245.45,270.19a1.14,1.14,0,0,0-1.48-1.13c-3,.94-9.65,3.22-11.59,3.37-2.46.18-9.82,21.15-9.82,21.15l-2.65,7.17,11.15,11.34L243,303.4l13.79-4.72s1.89-2.46.76-3.21S246,296.6,246,296.6s1.7-2.64,3.21-3.4,13.58-7.41,14.92-8.12c3.19-1.7,3-4.16-.95-3.78s-19.45,6.05-19.45,6.05,15.83-8.13,17.35-9c2.91-1.64,2.67-3.68,0-3.87S236,281.87,236,281.87l-1.32-1.13,1.32-3s8.87-3.21,9.25-5.28A15.74,15.74,0,0,0,245.45,270.19Z" style="fill:#a26760"></path><path d="M220.37,300.75a8.12,8.12,0,0,1-.8,1.29l-2.29,3.44c-1.92,2.9-4.49,7-7.38,11.44s-5.66,8.43-7.82,11.18c-1.08,1.37-2,2.46-2.63,3.19a8.59,8.59,0,0,1-1,1.1,9.89,9.89,0,0,1,.89-1.23c.61-.77,1.46-1.89,2.5-3.29,2.08-2.79,4.79-6.76,7.67-11.23s5.51-8.51,7.52-11.37c1-1.43,1.83-2.57,2.42-3.34A8.85,8.85,0,0,1,220.37,300.75Z" style="fill:#7b4b45"></path><path d="M233.18,310.16a1.73,1.73,0,0,1-.09.53l-.36,1.47c-.33,1.28-.83,3.13-1.52,5.39a158.18,158.18,0,0,1-6.46,17.29,98.47,98.47,0,0,1-4.49,9.13,32.33,32.33,0,0,1-5,6.66,20.79,20.79,0,0,1-4.44,3.43c-.58.32-1,.54-1.36.68a2.18,2.18,0,0,1-.5.18s.64-.34,1.76-1a23.07,23.07,0,0,0,4.28-3.51,33.26,33.26,0,0,0,4.83-6.64c1.55-2.7,3-5.82,4.44-9.1,2.9-6.58,5.11-12.72,6.58-17.19.73-2.24,1.29-4.07,1.68-5.33l.45-1.45A3.09,3.09,0,0,1,233.18,310.16Z" style="fill:#7b4b45"></path><path d="M255.6,266.09l10.74,8,6.25,10.71-.73,14.81-10.27,13.93s-5-1.61-5.42-4.11-.59-4.84-.59-4.84l-2.93-3.37s-15.54-6-15-11.73,4.25-1.28,7.33.9,12.83,5.83,12.83,5.83l-.35-.73s-16-13.82-17.17-16.43-.75-2.64,1.09-3.66,5.65,2.49,8.59,4.85,11.14,9.39,11.88,9.24-.15-1.91-.15-1.91-5-6.75-8.21-8.52-9.56-5.1-8.15-7.75,1.4-2.35,4.19-1.32,12.68,7.56,12.68,7.56S251,268.94,251,267.33c0-1,1.35-1.48,2.41-1.71A2.63,2.63,0,0,1,255.6,266.09Z" style="fill:#a26760"></path><path d="M261.59,313.52s.07.08.17.25l.44.75,1.66,2.92,6.05,10.77,4.22,7.42a94,94,0,0,0,5.19,8.26,68.21,68.21,0,0,0,6.85,8.31,37.58,37.58,0,0,0,4.25,3.78,18.63,18.63,0,0,0,5,2.83,9.87,9.87,0,0,0,5.66.28,12.91,12.91,0,0,0,4.95-2.55,20.86,20.86,0,0,0,3.71-4,29.77,29.77,0,0,0,2.71-4.49,57.55,57.55,0,0,0,3.42-9.12c.87-2.94,1.59-5.7,2.23-8.23,1.25-5.06,2.14-9.18,2.75-12,.3-1.4.54-2.5.7-3.29l.19-.85.08-.29a1.34,1.34,0,0,1,0,.3c0,.22-.09.51-.14.86-.15.8-.35,1.9-.61,3.31-.55,2.86-1.39,7-2.59,12.08-.62,2.54-1.32,5.31-2.18,8.26a57.75,57.75,0,0,1-3.4,9.21,30.37,30.37,0,0,1-2.74,4.57,21.2,21.2,0,0,1-3.79,4.09,13.49,13.49,0,0,1-5.14,2.66,10.37,10.37,0,0,1-6-.29,19.12,19.12,0,0,1-5.19-2.91,36.71,36.71,0,0,1-4.29-3.83,68.05,68.05,0,0,1-6.88-8.39,91.45,91.45,0,0,1-5.18-8.33l-4.16-7.45c-2.52-4.57-4.53-8.28-5.91-10.85l-1.57-3c-.16-.32-.29-.58-.4-.78Z" style="fill:#7b4b45"></path><path d="M271.23,295.69s21.33,30.4,23.3,31.19l2.26-13.36,25.07.73S318,335,314.09,345.05s-11,16.6-18.65,14-15.66-13.57-19.28-19.56c-3.54-5.83-14.57-26-14.57-26Z" style="fill:#a26760"></path><path d="M303.86,338a64.75,64.75,0,0,0-4.21-6.06,67.24,67.24,0,0,0-5.24-5.19,7.08,7.08,0,0,1,1.84,1.19,24.73,24.73,0,0,1,3.8,3.67,25.18,25.18,0,0,1,3,4.38A7,7,0,0,1,303.86,338Z" style="fill:#7b4b45"></path><path d="M271.84,300.75a1.1,1.1,0,0,1,0-.27c0-.19,0-.45,0-.79,0-.73.06-1.76.11-3.11.12-2.74.29-6.73.5-11.81l0,.07c-1.82-3.08-3.94-6.67-6.29-10.68l0,0-6-4.43L257,267.39a11.68,11.68,0,0,0-1.67-1.13,4,4,0,0,0-2-.34,3.18,3.18,0,0,0-1.83.75.81.81,0,0,0-.29.76,3.33,3.33,0,0,0,.57.85,34,34,0,0,0,3.22,3.1c2.3,2,4.77,4,7.33,6l-.27.38c-2.78-1.81-5.67-3.66-8.69-5.45a27.25,27.25,0,0,0-4.74-2.37c-.84-.28-1.74-.77-2.19,0a7.91,7.91,0,0,0-.69,1.13,2.6,2.6,0,0,0-.28.59,1.27,1.27,0,0,0-.09.58,3.78,3.78,0,0,0,1.32,2.16,15.16,15.16,0,0,0,2.18,1.7c1.54,1.05,3.21,1.93,4.9,2.88a21.35,21.35,0,0,1,4.36,3.91c1.31,1.45,2.56,3,3.75,4.57v0a5,5,0,0,1,.42,1.16,1.28,1.28,0,0,1,0,.75.56.56,0,0,1-.38.34.48.48,0,0,1-.29,0l-.19-.07a16.31,16.31,0,0,1-2.09-1.42c-3.67-2.82-7.1-5.8-10.58-8.6a29,29,0,0,0-5.31-3.81,3.43,3.43,0,0,0-1.46-.35,1.38,1.38,0,0,0-.66.21l-.7.39c-.47.28-.83.55-.77,1a5.18,5.18,0,0,0,.43,1.45,2.72,2.72,0,0,0,.35.68,2.82,2.82,0,0,0,.44.62c.31.41.67.8,1,1.18.72.77,1.45,1.52,2.2,2.24,1.48,1.46,3,2.86,4.47,4.23,3,2.74,5.93,5.35,8.79,7.83l.47.41H256l0,0q-3.12-1.17-6-2.47a28.86,28.86,0,0,1-5.47-3c-.81-.61-1.56-1.26-2.32-1.86a7.55,7.55,0,0,0-2.39-1.44,1.07,1.07,0,0,0-1.12.25,2.62,2.62,0,0,0-.55,1.15,4.33,4.33,0,0,0,0,2.57,9.51,9.51,0,0,0,3.16,3.87,31.63,31.63,0,0,0,4,2.67,62.27,62.27,0,0,0,7.51,3.65h0l0,0,2.92,3.39,0,0v0a38,38,0,0,0,.63,5.08,3.6,3.6,0,0,0,1.15,1.6,9.15,9.15,0,0,0,1.37,1,17.21,17.21,0,0,0,2,1l.71.3a12.08,12.08,0,0,1-2.8-1.2,8.83,8.83,0,0,1-1.41-1,3.72,3.72,0,0,1-1.22-1.66,36.58,36.58,0,0,1-.69-5.12l0,.07-2.94-3.36,0,0a62.33,62.33,0,0,1-7.58-3.62,31.72,31.72,0,0,1-4-2.67,9.9,9.9,0,0,1-3.3-4,3.43,3.43,0,0,1-.21-1.39,6.67,6.67,0,0,1,.21-1.4,3.09,3.09,0,0,1,.64-1.33,1.5,1.5,0,0,1,1.5-.36,7.77,7.77,0,0,1,2.55,1.5c.78.61,1.53,1.26,2.33,1.86a28.9,28.9,0,0,0,5.39,2.92c1.92.86,3.93,1.67,6,2.44h1.38l-.15.4c-2.87-2.48-5.82-5.08-8.82-7.82-1.49-1.37-3-2.77-4.49-4.23-.75-.73-1.49-1.48-2.21-2.26a13.7,13.7,0,0,1-1.06-1.21,3.44,3.44,0,0,1-.48-.68,4,4,0,0,1-.38-.74,5.77,5.77,0,0,1-.47-1.62,1.22,1.22,0,0,1,.31-.92,3.18,3.18,0,0,1,.71-.54l.71-.4a2.11,2.11,0,0,1,.88-.27,3.86,3.86,0,0,1,1.7.39,29.32,29.32,0,0,1,5.43,3.88c3.48,2.8,6.92,5.78,10.56,8.58a15.73,15.73,0,0,0,2,1.36.26.26,0,0,0,.1,0s0,0,0,0a.26.26,0,0,0,0,.15s-.06-.3,0-.16h0s0,0,0,0a.82.82,0,0,0,0-.44,4.77,4.77,0,0,0-.37-1l0,0c-1.18-1.57-2.42-3.1-3.71-4.54a21.42,21.42,0,0,0-4.24-3.81c-1.66-.93-3.36-1.83-4.93-2.89a17.17,17.17,0,0,1-2.24-1.76,7.09,7.09,0,0,1-.94-1.1,5.13,5.13,0,0,1-.36-.65,2.81,2.81,0,0,1-.17-.75,2.62,2.62,0,0,1,.42-1.44,9.14,9.14,0,0,1,.75-1.2,1.63,1.63,0,0,1,.61-.51,1.43,1.43,0,0,1,.81-.06,8.76,8.76,0,0,1,1.34.43,27.27,27.27,0,0,1,4.8,2.41c3,1.8,5.92,3.65,8.71,5.48l-.27.38c-2.57-2-5-4-7.35-6a33.59,33.59,0,0,1-3.25-3.17,3.52,3.52,0,0,1-.64-1,1.24,1.24,0,0,1,.39-1.2,3.66,3.66,0,0,1,2.09-.85,4.35,4.35,0,0,1,2.17.38,12.61,12.61,0,0,1,1.74,1.18l3.21,2.4,6,4.46,0,0v0l6.23,10.72,0,0v0c-.27,5.08-.48,9.06-.63,11.81-.07,1.34-.14,2.38-.18,3.1l-.05.8Z" style="fill:#7b4b45"></path><path d="M261.59,313.52s.07.08.17.25l.44.75,1.66,2.92,6.05,10.77,4.22,7.42a94,94,0,0,0,5.19,8.26,68.21,68.21,0,0,0,6.85,8.31,37.58,37.58,0,0,0,4.25,3.78,18.63,18.63,0,0,0,5,2.83,9.87,9.87,0,0,0,5.66.28,12.91,12.91,0,0,0,4.95-2.55,20.86,20.86,0,0,0,3.71-4,29.77,29.77,0,0,0,2.71-4.49,57.55,57.55,0,0,0,3.42-9.12c.87-2.94,1.59-5.7,2.23-8.23,1.25-5.06,2.14-9.18,2.75-12,.3-1.4.54-2.5.7-3.29l.19-.85.08-.29a1.34,1.34,0,0,1,0,.3c0,.22-.09.51-.14.86-.15.8-.35,1.9-.61,3.31-.55,2.86-1.39,7-2.59,12.08-.62,2.54-1.32,5.31-2.18,8.26a57.75,57.75,0,0,1-3.4,9.21,30.37,30.37,0,0,1-2.74,4.57,21.2,21.2,0,0,1-3.79,4.09,13.49,13.49,0,0,1-5.14,2.66,10.37,10.37,0,0,1-6-.29,19.12,19.12,0,0,1-5.19-2.91,36.71,36.71,0,0,1-4.29-3.83,68.05,68.05,0,0,1-6.88-8.39,91.45,91.45,0,0,1-5.18-8.33l-4.16-7.45c-2.52-4.57-4.53-8.28-5.91-10.85l-1.57-3c-.16-.32-.29-.58-.4-.78Z" style="fill:#7b4b45"></path></g><g id="freepik--speech-bubbles--inject-2"><path d="M239.2,72.71l12.63,18.06a3.4,3.4,0,0,0,5.64-.09L269.7,71.89Z" style="fill:#FFCC70"></path><rect x="170.99" y="27.53" width="160.74" height="50.38" rx="11" style="fill:#FFCC70"></rect><path d="M251.35,48.86a3.54,3.54,0,0,0-4.34-2,4.4,4.4,0,0,0-2.12,2,4.45,4.45,0,0,0-2.12-2,3.55,3.55,0,0,0-4.35,2C236,53.26,244.89,59,244.89,59S253.76,53.26,251.35,48.86Z" style="fill:#fff"></path><path d="M298.31,52.72a6.44,6.44,0,1,0-6.43,6.43,6.33,6.33,0,0,0,2.94-.72h0l3.5.54L297.38,56A6.34,6.34,0,0,0,298.31,52.72Z" style="fill:#fff"></path><path d="M189.16,59h12.48a6.53,6.53,0,0,0-6.31-4.78A6,6,0,0,0,189.16,59Z" style="fill:#fff"></path><path d="M198.81,50.14a3.43,3.43,0,1,1-3.42-3.42A3.43,3.43,0,0,1,198.81,50.14Z" style="fill:#fff"></path><path d="M211.17,55.41c0,1.8-1.24,3.17-3.75,3.17a5.12,5.12,0,0,1-3.76-1.44l.39-.59a4.54,4.54,0,0,0,3.35,1.31c2,0,3-1,3-2.41S209.46,53,206.55,53h-2.18l.57-5.19h5.68v.71h-5l-.41,3.78h1.53C210,52.28,211.17,53.52,211.17,55.41Z" style="fill:#fff"></path><path d="M212.64,53.15c0-3.35,1.73-5.43,4.19-5.43s4.2,2.08,4.2,5.43-1.73,5.43-4.2,5.43S212.64,56.5,212.64,53.15Zm7.61,0c0-3-1.4-4.71-3.42-4.71s-3.41,1.73-3.41,4.71,1.39,4.71,3.41,4.71S220.25,56.13,220.25,53.15Z" style="fill:#fff"></path><path d="M226.34,54.24l-2.09,1.89v2.38h-.76V47.15h.76v8l5.12-4.66h1l-3.44,3.23,3.78,4.76h-1Z" style="fill:#fff"></path><path d="M263.71,57.93v.73h-7.6v-.57l4.68-4.65c1.31-1.31,1.56-2.09,1.56-2.92,0-1.4-1-2.27-2.79-2.27a3.93,3.93,0,0,0-3.18,1.29l-.57-.51a4.89,4.89,0,0,1,3.81-1.52c2.16,0,3.56,1.12,3.56,2.93,0,1.06-.35,2-1.81,3.43l-4.07,4.06Z" style="fill:#fff"></path><path d="M269,54.25l-2.15,2v2.45H266V46.93h.79v8.3l5.28-4.83h1l-3.55,3.34,3.9,4.92h-1Z" style="fill:#fff"></path><path d="M309.33,55.86c0,1.83-1.32,3.19-3.87,3.19a5.32,5.32,0,0,1-3.9-1.48L302,57a4.68,4.68,0,0,0,3.49,1.36c2,0,3.05-1,3.05-2.45s-1-2.45-3.22-2.45h-.7v-.58l3.27-4.19H302v-.73h6.94v.57l-3.32,4.25C308.1,52.79,309.33,54.06,309.33,55.86Z" style="fill:#fff"></path><path d="M314.79,54.56l-2.15,2V59h-.79V47.24h.79v8.3l5.28-4.82h1l-3.55,3.34,3.9,4.91h-1Z" style="fill:#fff"></path><path d="M326,227.83l12.64,18.06a3.4,3.4,0,0,0,5.64-.09L356.52,227Z" style="fill:#FFCC70"></path><rect x="312.66" y="197.59" width="55.32" height="40.23" rx="11.56" style="fill:#FFCC70"></rect><path d="M353.05,221h-2.33v3.07h-.79V221h-6.3v-.59l6-7.41h.9l-5.89,7.29H350v-2.7h.77v2.7h2.33Z" style="fill:#fff"></path><path d="M339.9,218a6.45,6.45,0,1,0-3.49,5.72h0l3.5.54-.93-3A6.32,6.32,0,0,0,339.9,218Z" style="fill:#fff"></path><rect x="310.27" y="110.74" width="99.53" height="49.19" rx="13.25" style="fill:#FFCC70"></rect><path d="M344.35,154l12.53,17.93a3.65,3.65,0,0,0,6.05-.1l12.14-18.65Z" style="fill:#FFCC70"></path><path d="M379.34,131.35A3.55,3.55,0,0,0,375,129.4a4.45,4.45,0,0,0-2.12,1.95,4.4,4.4,0,0,0-2.12-1.95,3.54,3.54,0,0,0-4.34,1.95c-2.41,4.39,6.46,10.11,6.46,10.11S381.74,135.74,379.34,131.35Z" style="fill:#fff"></path><path d="M320.15,141.46h12.48a6.54,6.54,0,0,0-6.32-4.78A6,6,0,0,0,320.15,141.46Z" style="fill:#fff"></path><path d="M329.8,132.63a3.43,3.43,0,1,1-3.42-3.42A3.43,3.43,0,0,1,329.8,132.63Z" style="fill:#fff"></path><path d="M337.78,130.28V141H337V131h-2.62v-.71Z" style="fill:#fff"></path><path d="M340.49,135.64c0-3.35,1.73-5.43,4.19-5.43s4.19,2.08,4.19,5.43-1.72,5.43-4.19,5.43S340.49,139,340.49,135.64Zm7.6,0c0-3-1.39-4.72-3.41-4.72s-3.41,1.73-3.41,4.72,1.39,4.71,3.41,4.71S348.09,138.62,348.09,135.64Z" style="fill:#fff"></path><path d="M354.18,136.72l-2.08,1.9V141h-.76V129.64h.76v8l5.11-4.66h1l-3.44,3.23,3.78,4.75h-.95Z" style="fill:#fff"></path><path d="M391,140.42v.72H383.4v-.56l4.68-4.65c1.31-1.31,1.57-2.09,1.57-2.93,0-1.39-1-2.26-2.8-2.26a3.94,3.94,0,0,0-3.18,1.28l-.57-.5a4.86,4.86,0,0,1,3.81-1.52c2.17,0,3.56,1.12,3.56,2.92,0,1.06-.35,2-1.8,3.43l-4.08,4.07Z" style="fill:#fff"></path><path d="M396.27,136.73l-2.15,2v2.45h-.79V129.42h.79v8.29l5.28-4.82h1l-3.55,3.34,3.9,4.91h-1Z" style="fill:#fff"></path><rect x="82.11" y="110.27" width="99.53" height="49.19" rx="13.25" style="fill:#FFCC70"></rect><path d="M121.3,153.49l12.54,17.93a3.64,3.64,0,0,0,6-.1L152,152.67Z" style="fill:#FFCC70"></path><path d="M153.41,130.88a3.54,3.54,0,0,0-4.34-1.95,4.4,4.4,0,0,0-2.12,1.95,4.45,4.45,0,0,0-2.12-1.95,3.54,3.54,0,0,0-4.35,1.95C138.08,135.28,147,141,147,141S155.81,135.28,153.41,130.88Z" style="fill:#fff"></path><path d="M97.42,141.72h12.47a6.53,6.53,0,0,0-6.31-4.79A6,6,0,0,0,97.42,141.72Z" style="fill:#fff"></path><path d="M107.07,132.88a3.43,3.43,0,1,1-3.43-3.42A3.43,3.43,0,0,1,107.07,132.88Z" style="fill:#fff"></path><path d="M115.05,130.53v10.72h-.78v-10h-2.62v-.71Z" style="fill:#fff"></path><path d="M117.76,135.89c0-3.35,1.72-5.43,4.19-5.43s4.19,2.08,4.19,5.43-1.73,5.44-4.19,5.44S117.76,139.24,117.76,135.89Zm7.6,0c0-3-1.39-4.71-3.41-4.71s-3.41,1.73-3.41,4.71,1.39,4.72,3.41,4.72S125.36,138.88,125.36,135.89Z" style="fill:#fff"></path><path d="M165.08,140v.73h-7.6v-.57l4.68-4.65c1.31-1.31,1.56-2.09,1.56-2.92,0-1.4-1-2.27-2.8-2.27a3.91,3.91,0,0,0-3.17,1.29l-.57-.51a4.88,4.88,0,0,1,3.81-1.52c2.16,0,3.55,1.12,3.55,2.93,0,1.06-.34,2-1.8,3.43L158.66,140Z" style="fill:#fff"></path><path d="M160.53,217.19l12.63,18.06a3.41,3.41,0,0,0,5.65-.1L191,216.37Z" style="fill:#FFCC70"></path><rect x="147.18" y="186.95" width="55.32" height="40.23" rx="11.56" style="fill:#FFCC70"></rect><path d="M166.66,216.16h18.25s-1.76-7-9.23-7A8.76,8.76,0,0,0,166.66,216.16Z" style="fill:#fff"></path><circle cx="175.77" cy="203.24" r="5.01" style="fill:#fff"></circle></g></svg>