<svg width="50" height="89" viewBox="0 0 50 89" fill="none" xmlns="http://www.w3.org/2000/svg">
<path d="M47.15 29L46.45 69.5H36.85L32.4 45.95L27.6 69.5H18.35L17.65 29L24 29L24.75 55.95L29.45 29H35.1L40.1 56.15L40.7 29H47.15Z" fill="#2B3467"/>
<path d="M2.65 67.95V62.05C4.08333 62.0833 5.33333 62.0167 6.4 61.85C7.46667 61.6833 8.33333 61.3667 9 60.9C9.66667 60.4333 10.1 59.8 10.3 59C10.5333 58.1667 10.5 57.1333 10.2 55.9L1.1 19.5H9.4L12.9 36.15L14.55 47L15.75 36.1L18.7 19.5H27.1L18.7 57.25C18.3 59.0833 17.8333 60.6333 17.3 61.9C16.7667 63.1667 16.1 64.2 15.3 65C14.5333 65.8333 13.5833 66.4667 12.45 66.9C11.3167 67.3333 9.93333 67.6167 8.3 67.75C6.7 67.9167 4.81667 67.9833 2.65 67.95Z" fill="#FFCC70"/>
</svg>
