<svg width="500" height="320" viewBox="0 0 500 320" fill="none" xmlns="http://www.w3.org/2000/svg">
<g clip-path="url(#clip0_274_316)">
<path d="M500 0H0V320H500V0Z" fill="white"/>
<path d="M459.119 291.082H56.7031C56.7031 291.082 8.18116 259.947 40.9842 201.633C70.8679 148.509 92.4786 181.607 83.4413 86.2478C79.8265 48.0972 105.793 28.8692 141.767 28.839C177.35 28.8089 214.52 43.4143 248.746 36.6943C259.707 34.5419 270.864 32.9124 277.48 32.2358C307.613 28.8692 333.002 30.4214 354.047 35.3534C431.773 53.561 450.264 117.839 429.784 150.593C401.404 195.99 503.32 215.584 459.119 291.082Z" fill="#EBF3FA"/>
<path d="M278.628 188.612C278.628 188.612 286.765 155.504 314.214 151.864C314.214 151.864 319.555 151.234 321.334 156.88C323.112 162.526 312.493 162.566 305.929 164.837C299.366 167.108 284.063 176.735 278.628 188.612Z" fill="#D2E0FF"/>
<path d="M278.004 182.416C278.004 182.416 275.15 154.992 295.182 145.259C295.182 145.259 299.101 143.426 302.013 147.301C304.925 151.177 296.801 153.894 292.395 157.294C287.99 160.695 278.909 171.942 278.004 182.416Z" fill="#D2E0FF"/>
<g opacity="0.8">
<path d="M248.522 130.697C248.522 130.697 265.645 128.631 263.436 115.915C263.436 115.915 260.869 107.635 255.967 103.853C255.967 103.853 252.528 120.194 249.4 119.391C246.272 118.589 254.6 101.449 254.6 101.449C254.6 101.449 242.771 88.9374 236.777 87.2268C236.777 87.2268 239.628 105.601 236.803 104.085C233.977 102.568 230.085 83.5804 230.085 83.5804C230.085 83.5804 216.148 75.0318 210.107 82.6626C204.064 90.2934 206.16 96.1014 208.166 97.5068C210.172 98.912 224.573 104.313 223.446 105.954C222.319 107.595 211.437 106.685 206.721 102.976C206.721 102.976 206.711 119.404 214.827 121.733C222.943 124.062 227.324 120.361 232.312 121.888C237.3 123.414 240.307 126.041 237.359 126.35C234.413 126.658 226.582 122.629 221.328 124.296C216.073 125.962 212.08 126.695 218.732 130.95C225.384 135.205 238.784 139.384 243.653 135.041C248.522 130.697 248.522 130.697 248.522 130.697Z" fill="#AEC3FF"/>
<path d="M215.858 88.0224C215.858 88.0224 249.793 115.385 248.522 130.697C248.522 130.697 245.769 136.697 246.732 145.185L245.6 147.863C245.6 147.863 245.357 137.161 243.653 135.041C243.653 135.041 257.378 126.659 215.858 88.0224Z" fill="#AEC3FF"/>
<path d="M246.732 145.184C246.732 145.184 249.045 156.314 241.092 165.668L239.71 164.665C239.71 164.665 246.192 153.474 245.543 146.324C244.894 139.173 246.732 145.184 246.732 145.184Z" fill="#AEC3FF"/>
</g>
<g opacity="0.5">
<path d="M184.346 122.921C184.346 122.921 205.741 111.74 196.016 96.1204C196.016 96.1204 188.201 86.5078 179.73 83.9621C179.73 83.9621 183.976 107.137 179.435 107.629C174.894 108.121 176.644 81.4779 176.644 81.4779C176.644 81.4779 154.387 70.8833 145.592 71.5983C145.592 71.5983 159.195 94.3367 154.668 93.7405C150.141 93.1444 134.841 70.1143 134.841 70.1143C134.841 70.1143 111.939 65.7699 108.093 78.785C104.246 91.8004 110.115 98.3974 113.505 99.2529C116.896 100.108 138.718 100.087 138.118 102.801C137.517 105.514 122.728 109.698 114.54 107.155C114.54 107.155 123.34 128.75 135.255 127.798C147.17 126.847 150.942 119.816 158.317 119.357C165.691 118.898 171.051 120.864 167.344 122.726C163.636 124.588 151.184 123.164 145.172 127.952C139.161 132.741 134.307 135.678 145.331 137.981C156.355 140.284 176.208 139.152 180.277 131.037C184.346 122.921 184.346 122.921 184.346 122.921Z" fill="#D2E0FF"/>
<path d="M118.526 82.9863C118.526 82.9863 177.803 102.169 184.346 122.921C184.346 122.921 183.653 132.98 180.277 131.037C180.277 131.037 193.819 113.235 118.526 82.9863Z" fill="#D2E0FF"/>
</g>
<path d="M318.881 245.149C318.881 245.149 321.154 231.883 331.827 233.993C331.827 233.993 338.742 236.246 341.786 240.179C341.786 240.179 327.877 242.354 328.459 244.813C329.04 247.272 343.775 241.317 343.775 241.317C343.775 241.317 353.979 250.91 355.24 255.629C355.24 255.629 339.807 252.844 341.001 255.09C342.195 257.337 358.114 260.95 358.114 260.95C358.114 260.95 364.906 272.063 358.275 276.531C351.643 281 346.802 279.19 345.676 277.585C344.551 275.981 340.432 264.604 339.011 265.431C337.59 266.258 338.024 274.757 341.012 278.542C341.012 278.542 327.135 278.044 325.417 271.655C323.699 265.265 326.961 261.969 325.825 258.039C324.688 254.109 322.562 251.687 322.211 253.972C321.86 256.257 325.022 262.476 323.453 266.516C321.883 270.555 321.141 273.641 317.752 268.331C314.362 263.022 311.244 252.462 315.063 248.805C318.881 245.149 318.881 245.149 318.881 245.149Z" fill="#BBD0FF"/>
<path d="M353.924 271.89C353.924 271.89 331.855 244.63 318.881 245.149C318.881 245.149 313.729 247.107 306.589 246.097L304.291 246.895C304.291 246.895 313.324 247.414 315.062 248.806C315.063 248.806 322.565 238.379 353.924 271.89Z" fill="#BBD0FF"/>
<path d="M306.589 246.097C306.589 246.097 297.259 243.954 289.113 249.858L289.918 250.964C289.918 250.964 299.57 246.262 305.59 246.987C311.61 247.712 306.589 246.097 306.589 246.097Z" fill="#BBD0FF"/>
<path d="M317.339 218.475C317.339 218.475 291.616 205.821 303.62 188.648C303.62 188.648 313.223 178.103 323.513 175.391C323.513 175.391 318.025 201.001 323.513 201.603C329.001 202.206 327.286 172.68 327.286 172.68C327.286 172.68 354.381 161.231 365.014 162.135C365.014 162.135 348.207 187.142 353.695 186.539C359.183 185.936 378.047 160.629 378.047 160.629C378.047 160.629 405.828 156.109 410.287 170.571C414.746 185.033 407.543 192.263 403.428 193.167C399.312 194.071 372.902 193.77 373.588 196.783C374.274 199.796 392.109 204.616 402.056 201.905C402.056 201.905 391.08 225.706 376.675 224.501C362.27 223.296 357.811 215.462 348.893 214.86C339.976 214.257 333.459 216.366 337.918 218.475C342.377 220.584 357.468 219.166 364.671 224.545C371.873 229.924 377.704 233.238 364.328 235.649C350.951 238.059 326.943 236.552 322.141 227.514C317.339 218.475 317.339 218.475 317.339 218.475Z" fill="#D2E0FF"/>
<path d="M397.597 175.091C397.597 175.091 325.571 195.578 317.339 218.476C317.339 218.476 317.682 228.719 310.479 240.47V244.989C310.479 244.989 318.025 229.623 322.141 227.514C322.141 227.514 306.021 207.629 397.597 175.091Z" fill="#D2E0FF"/>
<path d="M310.48 240.469C310.48 240.469 299.372 255.286 305.704 273.322L308.562 272.648C308.562 272.648 305.788 252.782 311.6 242.791C317.411 232.8 310.48 240.469 310.48 240.469Z" fill="#D2E0FF"/>
<path d="M341.328 74.0127L340.743 73.5344C340.12 73.0238 340.046 72.1216 340.578 71.5233L344.758 66.8202C345.289 66.2219 346.229 66.1504 346.853 66.6609L347.689 67.3459C347.811 67.4459 347.826 67.6223 347.721 67.7395C347.617 67.8569 347.434 67.8706 347.311 67.7706L346.475 67.0857C346.096 66.775 345.524 66.8184 345.2 67.1826L341.02 71.8857C340.696 72.2499 340.742 72.799 341.121 73.1097L341.705 73.588C342.085 73.8988 342.657 73.8553 342.98 73.4911L345.755 70.369C345.859 70.2518 346.043 70.2377 346.165 70.3379C346.287 70.4381 346.302 70.6141 346.197 70.7315L343.422 73.8536C342.891 74.452 341.951 74.5233 341.328 74.0127Z" fill="#AEC3FF"/>
<path d="M337.308 79.0256L336.261 78.1682C335.29 77.3722 335.222 75.9111 336.11 74.9117L342.395 67.841C342.499 67.7238 342.683 67.7099 342.805 67.8099C342.927 67.9099 342.941 68.0863 342.837 68.2035L336.553 75.2741C335.872 76.0393 335.911 77.1473 336.639 77.7433L337.686 78.6007C338.414 79.197 339.559 79.0593 340.239 78.2939L347.398 70.24C348.078 69.4748 348.04 68.367 347.311 67.7708C347.189 67.6708 347.175 67.4946 347.279 67.3772C347.383 67.26 347.567 67.2459 347.689 67.3461C348.661 68.1421 348.729 69.603 347.84 70.6024L340.682 78.6563C339.793 79.656 338.28 79.8216 337.308 79.0256Z" fill="#AEC3FF"/>
<path d="M302.047 122.605L302.349 121.718C302.67 120.771 303.735 120.252 304.722 120.561L312.474 122.992C313.46 123.302 314.001 124.323 313.678 125.27L313.246 126.541C313.183 126.726 312.975 126.827 312.782 126.767C312.588 126.706 312.483 126.507 312.546 126.321L312.978 125.051C313.174 124.474 312.845 123.853 312.245 123.664L304.493 121.233C303.893 121.045 303.244 121.361 303.048 121.937L302.747 122.824C302.55 123.401 302.879 124.022 303.48 124.21L308.626 125.824C308.819 125.885 308.924 126.085 308.861 126.27C308.798 126.455 308.59 126.557 308.397 126.496L303.251 124.883C302.265 124.573 301.725 123.551 302.047 122.605Z" fill="#F99746"/>
<path d="M293.995 120.504L294.536 118.914C295.038 117.437 296.787 116.657 298.434 117.173L310.089 120.828C310.282 120.889 310.388 121.088 310.325 121.274C310.262 121.459 310.054 121.561 309.861 121.5L298.206 117.845C296.944 117.45 295.612 118.028 295.235 119.133L294.695 120.723C294.318 121.829 295.039 123.05 296.3 123.446L309.576 127.609C310.837 128.005 312.169 127.427 312.546 126.321C312.609 126.136 312.817 126.034 313.01 126.095C313.203 126.155 313.309 126.355 313.246 126.541C312.744 128.017 310.994 128.798 309.347 128.281L296.072 124.118C294.424 123.601 293.492 121.98 293.995 120.504Z" fill="#F99746"/>
<path d="M60.6139 256.914C60.6139 256.914 63.329 287.978 98.3859 290.011H200.051L203.558 249.845L60.6139 256.914Z" fill="#C0CCFF"/>
<g opacity="0.5">
<path d="M207.151 239.056L206.197 256.37L205.271 256.342L201.609 290.011H104.562C114.13 289.463 134.763 285.053 125.675 256.37C125.201 254.872 123.91 251.544 122.354 249.15C122.314 249.087 122.272 249.025 122.231 248.963C122.208 248.928 122.183 248.892 122.16 248.858C117.491 241.963 112.186 239.563 106.757 239.056H207.151Z" fill="#B6C4FF"/>
</g>
<path d="M207.175 239.056L205.294 256.342L201.632 290.011H104.585C114.153 289.463 134.787 285.053 125.698 256.37C125.224 254.872 123.933 251.544 122.377 249.15C122.337 249.087 122.295 249.025 122.255 248.963C122.232 248.928 122.206 248.892 122.183 248.858L207.175 239.056Z" fill="#8D9EFF"/>
<path d="M93.0748 202.442H147.399L138.633 210.858L109.205 220.129L93.0748 202.442Z" fill="#C0CCFF"/>
<path d="M208.886 207.563L207.151 239.056L206.197 256.37L205.271 256.342L125.043 253.884C124.175 252.113 123.278 250.543 122.354 249.15C122.314 249.087 122.272 249.025 122.231 248.963C122.208 248.928 122.183 248.892 122.16 248.858C117.491 241.963 112.186 239.563 106.757 239.056H106.745C93.9174 237.867 80.3924 247.235 72.9058 232.823C60.6005 209.135 88.9911 194.47 105.749 206.792C113.137 212.225 118.891 214.017 123.353 213.745C129.286 213.382 132.935 209.369 135.107 205.407C137.325 201.364 138.005 197.375 138.005 197.375L208.886 207.563Z" fill="#8D9EFF"/>
<path d="M195.357 193.212L140.274 202.89C140.274 202.89 169.451 194.577 129.164 170.439C97.6953 151.584 97.5009 112.267 140.456 114.48C189.589 117.011 207.947 190.368 207.947 190.368L195.357 193.212Z" fill="#8D9EFF"/>
<path d="M190.825 193.212C190.825 193.212 198.73 174.578 186.183 149.604C169.076 115.556 139.827 114.45 139.827 114.45L235.871 114.572C241.892 114.572 247.719 116.16 252.321 119.06C265.82 127.567 290.201 150.268 285.71 193.212L190.825 193.212Z" fill="#F3F5FF"/>
<path d="M452.21 280.803V286.985C452.21 289.004 450.507 290.64 448.404 290.64H186.368L179.707 193.212H324.764C338.604 193.212 349.826 203.983 349.826 217.271V218.131C349.826 223.959 353.37 229.252 358.893 231.671L410.739 254.372L415.166 256.312L417.432 257.303L418.953 257.969L444.372 269.1C449.147 271.191 452.21 275.766 452.21 280.803Z" fill="#8C9DF4"/>
<path d="M166.76 193.212H144.562C137.066 193.212 133.28 201.885 138.536 207.016L150.984 219.168C156.287 224.345 165.463 220.74 165.463 213.478V201.326C165.463 196.845 171.428 193.212 166.76 193.212Z" fill="#060633"/>
<path d="M145.307 221.609H155.528V194.577H139.27L145.307 221.609Z" fill="#060633"/>
<path d="M144.239 193.212H131.79C124.294 193.212 120.508 201.885 125.764 207.016L138.212 219.168C143.516 224.345 152.691 220.74 152.691 213.478V201.326C152.691 196.845 148.907 193.212 144.239 193.212Z" fill="#6980E2"/>
<path d="M337.248 280.804V286.985C337.248 289.003 335.545 290.641 333.444 290.641H161.685V193.212H209.801C223.643 193.212 234.865 203.985 234.865 217.273V218.129C234.865 223.96 238.409 229.25 243.932 231.67L329.412 269.099C334.186 271.192 337.248 275.766 337.248 280.804Z" fill="#5067C9"/>
<path d="M268.381 237.083L342.272 268.727C343.841 269.399 345.539 269.746 347.257 269.746H428.434C430.49 269.746 431.097 267.057 429.227 266.239L358.21 235.201C357.205 234.761 356.112 234.536 355.007 234.54L268.872 234.847C267.561 234.852 267.183 236.571 268.381 237.083Z" fill="#6980E2"/>
<path d="M386.205 254.165L383.914 254.425C382.692 254.564 380.923 254.335 379.983 253.916L378.221 253.132C377.281 252.713 377.512 252.257 378.735 252.119L381.025 251.859C382.247 251.72 384.017 251.95 384.957 252.368L386.718 253.153C387.658 253.571 387.427 254.027 386.205 254.165Z" fill="#233862"/>
<path d="M377.651 248.893L377.651 252.725L387.293 253.703L387.292 250.033L377.651 248.893Z" fill="#233862"/>
<path d="M375.41 254.166L373.119 254.426C371.897 254.565 370.128 254.336 369.188 253.917L367.426 253.133C366.486 252.714 366.717 252.258 367.939 252.12L370.23 251.86C371.453 251.721 373.222 251.95 374.161 252.369L375.923 253.154C376.863 253.572 376.632 254.028 375.41 254.166Z" fill="#233862"/>
<path d="M366.856 248.894L366.856 252.726L376.498 253.704L376.497 250.034L366.856 248.894Z" fill="#233862"/>
<path d="M364.615 254.167L362.324 254.427C361.102 254.566 359.333 254.337 358.393 253.918L356.631 253.134C355.691 252.715 355.922 252.259 357.144 252.121L359.435 251.861C360.657 251.722 362.426 251.951 363.366 252.37L365.128 253.154C366.068 253.573 365.837 254.029 364.615 254.167Z" fill="#233862"/>
<path d="M356.061 248.895L356.061 252.727L365.703 253.705L365.702 250.035L356.061 248.895Z" fill="#233862"/>
<path d="M353.82 254.168L351.529 254.428C350.307 254.567 348.538 254.338 347.598 253.919L345.836 253.135C344.896 252.716 345.127 252.26 346.349 252.122L348.64 251.862C349.862 251.723 351.632 251.952 352.571 252.371L354.333 253.155C355.273 253.574 355.042 254.03 353.82 254.168Z" fill="#233862"/>
<path d="M345.266 248.896L345.266 252.728L354.908 253.706L354.907 250.036L345.266 248.896Z" fill="#233862"/>
<path d="M343.025 254.169L340.734 254.429C339.512 254.568 337.743 254.339 336.803 253.92L335.041 253.136C334.101 252.717 334.332 252.261 335.554 252.122L337.845 251.863C339.067 251.724 340.836 251.953 341.776 252.372L343.538 253.156C344.478 253.575 344.247 254.031 343.025 254.169Z" fill="#233862"/>
<path d="M334.471 248.897L334.471 252.729L344.112 253.706L344.112 250.037L334.471 248.897Z" fill="#233862"/>
<path d="M332.23 254.17L329.939 254.43C328.717 254.569 326.948 254.339 326.008 253.921L324.246 253.137C323.306 252.718 323.537 252.262 324.759 252.123L327.05 251.864C328.272 251.725 330.041 251.954 330.981 252.373L332.743 253.157C333.683 253.576 333.452 254.032 332.23 254.17Z" fill="#233862"/>
<path d="M323.676 248.897L323.676 252.73L333.317 253.707L333.317 250.038L323.676 248.897Z" fill="#233862"/>
<path d="M363.315 246.584L361.024 246.844C359.802 246.983 358.033 246.753 357.093 246.335L355.331 245.55C354.391 245.132 354.622 244.676 355.845 244.538L358.135 244.278C359.358 244.139 361.127 244.368 362.067 244.787L363.828 245.571C364.768 245.99 364.537 246.446 363.315 246.584Z" fill="#233862"/>
<path d="M354.761 241.312L354.761 245.144L364.403 246.121L364.403 242.452L354.761 241.312Z" fill="#233862"/>
<path d="M373.996 246.583L371.705 246.843C370.483 246.982 368.714 246.753 367.774 246.334L366.012 245.55C365.072 245.131 365.303 244.675 366.525 244.537L368.816 244.277C370.039 244.138 371.808 244.367 372.747 244.786L374.509 245.57C375.449 245.989 375.218 246.445 373.996 246.583Z" fill="#233862"/>
<path d="M365.442 241.311L365.442 245.143L375.084 246.12L375.083 242.451L365.442 241.311Z" fill="#233862"/>
<path d="M352.52 246.585L350.229 246.845C349.007 246.983 347.238 246.754 346.298 246.336L344.536 245.551C343.596 245.133 343.827 244.677 345.049 244.538L347.34 244.279C348.563 244.14 350.332 244.369 351.272 244.788L353.033 245.572C353.973 245.991 353.742 246.446 352.52 246.585Z" fill="#233862"/>
<path d="M343.966 241.313L343.966 245.145L353.608 246.122L353.607 242.453L343.966 241.313Z" fill="#233862"/>
<path d="M341.725 246.586L339.434 246.846C338.212 246.985 336.443 246.755 335.503 246.337L333.741 245.552C332.801 245.134 333.032 244.678 334.255 244.539L336.545 244.28C337.767 244.141 339.537 244.37 340.477 244.789L342.238 245.573C343.178 245.992 342.947 246.447 341.725 246.586Z" fill="#233862"/>
<path d="M333.171 241.314L333.171 245.145L342.813 246.123L342.812 242.454L333.171 241.314Z" fill="#233862"/>
<path d="M330.93 246.587L328.639 246.847C327.417 246.985 325.648 246.756 324.708 246.338L322.946 245.553C322.006 245.135 322.237 244.679 323.459 244.54L325.75 244.281C326.972 244.142 328.742 244.371 329.682 244.79L331.443 245.574C332.383 245.993 332.152 246.448 330.93 246.587Z" fill="#233862"/>
<path d="M322.376 241.315L322.376 245.146L332.018 246.124L332.017 242.455L322.376 241.315Z" fill="#233862"/>
<path d="M320.135 246.588L317.844 246.848C316.622 246.986 314.853 246.757 313.913 246.339L312.151 245.554C311.211 245.136 311.442 244.68 312.664 244.541L314.955 244.282C316.178 244.143 317.947 244.372 318.887 244.791L320.648 245.575C321.588 245.994 321.357 246.449 320.135 246.588Z" fill="#233862"/>
<path d="M311.581 241.315L311.582 245.147L321.223 246.125L321.222 242.456L311.581 241.315Z" fill="#233862"/>
<path d="M309.34 246.589L307.049 246.849C305.827 246.987 304.058 246.758 303.118 246.34L301.356 245.555C300.416 245.137 300.647 244.681 301.87 244.542L304.16 244.282C305.382 244.144 307.152 244.373 308.092 244.792L309.853 245.576C310.793 245.995 310.562 246.45 309.34 246.589Z" fill="#233862"/>
<path d="M300.786 241.316L300.786 245.148L310.428 246.126L310.428 242.457L300.786 241.316Z" fill="#233862"/>
<path d="M399.88 262.312L397.421 262.591C396.109 262.74 394.21 262.494 393.201 262.045L391.31 261.203C390.301 260.753 390.549 260.264 391.861 260.115L394.32 259.836C395.632 259.687 397.531 259.933 398.539 260.383L400.431 261.225C401.439 261.674 401.191 262.163 399.88 262.312Z" fill="#233862"/>
<path d="M390.697 256.652L390.698 260.766L401.047 261.815L401.047 257.876L390.697 256.652Z" fill="#233862"/>
<path d="M411.345 262.311L408.886 262.59C407.574 262.739 405.675 262.493 404.666 262.044L402.775 261.202C401.766 260.752 402.014 260.263 403.326 260.114L405.785 259.835C407.097 259.686 408.996 259.933 410.005 260.382L411.895 261.224C412.905 261.673 412.657 262.162 411.345 262.311Z" fill="#233862"/>
<path d="M402.163 256.651V260.765L412.512 261.814L412.512 257.875L402.163 256.651Z" fill="#233862"/>
<path d="M388.292 262.313L385.833 262.592C384.521 262.741 382.622 262.495 381.613 262.046L379.722 261.204C378.713 260.754 378.961 260.265 380.273 260.116L382.732 259.837C384.044 259.689 385.943 259.934 386.952 260.384L388.843 261.226C389.852 261.675 389.604 262.164 388.292 262.313Z" fill="#233862"/>
<path d="M379.11 256.654L379.11 260.767L389.459 261.816L389.459 257.878L379.11 256.654Z" fill="#233862"/>
<path d="M376.704 262.314L374.245 262.593C372.933 262.742 371.034 262.496 370.025 262.047L368.134 261.205C367.125 260.755 367.373 260.266 368.685 260.117L371.144 259.838C372.456 259.69 374.355 259.935 375.364 260.385L377.255 261.227C378.264 261.676 378.016 262.165 376.704 262.314Z" fill="#233862"/>
<path d="M367.522 256.654L367.523 260.768L377.872 261.817L377.872 257.878L367.522 256.654Z" fill="#233862"/>
<path d="M365.116 262.315L362.658 262.594C361.346 262.743 359.447 262.497 358.438 262.048L356.547 261.206C355.538 260.756 355.786 260.267 357.098 260.118L359.556 259.839C360.868 259.691 362.768 259.937 363.776 260.386L365.667 261.228C366.676 261.677 366.429 262.166 365.116 262.315Z" fill="#233862"/>
<path d="M355.934 256.655L355.935 260.769L366.284 261.818L366.284 257.879L355.934 256.655Z" fill="#233862"/>
<path d="M353.529 262.316L351.07 262.595C349.758 262.744 347.859 262.498 346.85 262.049L344.959 261.206C343.95 260.757 344.198 260.268 345.51 260.119L347.968 259.84C349.28 259.691 351.18 259.937 352.189 260.387L354.08 261.229C355.089 261.678 354.841 262.167 353.529 262.316Z" fill="#233862"/>
<path d="M344.347 256.656L344.347 260.77L354.696 261.819L354.696 257.881L344.347 256.656Z" fill="#233862"/>
<path d="M341.941 262.317L339.483 262.596C338.171 262.745 336.271 262.499 335.262 262.05L333.371 261.207C332.362 260.758 332.61 260.269 333.922 260.12L336.381 259.841C337.693 259.693 339.592 259.939 340.601 260.388L342.492 261.23C343.501 261.679 343.253 262.169 341.941 262.317Z" fill="#233862"/>
<path d="M332.759 256.657L332.759 260.771L343.109 261.82L343.108 257.881L332.759 256.657Z" fill="#233862"/>
<path d="M323.737 239.335L321.397 239.595C320.149 239.733 318.342 239.504 317.382 239.086L315.583 238.301C314.623 237.883 314.859 237.427 316.107 237.288L318.447 237.029C319.695 236.89 321.502 237.119 322.462 237.538L324.261 238.322C325.221 238.741 324.986 239.196 323.737 239.335Z" fill="#233862"/>
<path d="M315.001 234.062L315.001 237.894L324.848 238.872L324.848 235.203L315.001 234.062Z" fill="#233862"/>
<path d="M312.712 239.336L310.372 239.596C309.124 239.734 307.317 239.505 306.357 239.087L304.557 238.302C303.597 237.884 303.833 237.428 305.082 237.289L307.421 237.03C308.67 236.891 310.476 237.12 311.437 237.539L313.236 238.323C314.196 238.742 313.96 239.197 312.712 239.336Z" fill="#233862"/>
<path d="M303.975 234.063L303.975 237.895L313.822 238.873L313.822 235.204L303.975 234.063Z" fill="#233862"/>
<path d="M301.686 239.337L299.347 239.597C298.098 239.735 296.291 239.506 295.331 239.088L293.532 238.303C292.572 237.885 292.808 237.429 294.056 237.29L296.396 237.03C297.644 236.892 299.451 237.121 300.411 237.539L302.211 238.324C303.17 238.743 302.934 239.198 301.686 239.337Z" fill="#233862"/>
<path d="M292.949 234.064L292.95 237.896L302.797 238.874V235.205L292.949 234.064Z" fill="#233862"/>
<path d="M290.661 239.338L288.321 239.598C287.073 239.736 285.266 239.507 284.306 239.089L282.507 238.304C281.546 237.886 281.782 237.43 283.031 237.291L285.37 237.031C286.619 236.893 288.426 237.122 289.386 237.54L291.185 238.325C292.145 238.743 291.909 239.199 290.661 239.338Z" fill="#233862"/>
<path d="M281.924 234.065L281.924 237.897L291.771 238.875L291.771 235.206L281.924 234.065Z" fill="#233862"/>
<path d="M345.788 239.333L343.449 239.593C342.2 239.732 340.393 239.502 339.433 239.084L337.634 238.299C336.674 237.881 336.91 237.425 338.158 237.286L340.498 237.027C341.746 236.888 343.553 237.117 344.513 237.536L346.312 238.32C347.272 238.739 347.037 239.194 345.788 239.333Z" fill="#233862"/>
<path d="M337.051 234.061L337.052 237.893L346.899 238.87L346.899 235.201L337.051 234.061Z" fill="#233862"/>
<path d="M345.788 235.664L343.448 235.923C342.2 236.062 340.393 235.833 339.433 235.414L337.634 234.63C336.674 234.211 336.909 233.755 338.158 233.617L340.497 233.357C341.746 233.219 343.553 233.448 344.513 233.866L346.312 234.651C347.272 235.069 347.036 235.525 345.788 235.664Z" fill="#F9DDBF"/>
<path d="M357.813 239.333L355.473 239.593C354.225 239.732 352.418 239.502 351.458 239.084L349.659 238.299C348.699 237.881 348.934 237.425 350.183 237.286L352.523 237.027C353.771 236.888 355.578 237.117 356.538 237.536L358.337 238.32C359.297 238.739 359.061 239.194 357.813 239.333Z" fill="#233862"/>
<path d="M349.076 234.061L349.076 237.893L358.924 238.87L358.923 235.201L349.076 234.061Z" fill="#233862"/>
<path d="M357.812 235.664L355.473 235.923C354.224 236.062 352.418 235.833 351.457 235.414L349.658 234.63C348.698 234.211 348.934 233.755 350.182 233.617L352.522 233.357C353.77 233.219 355.577 233.448 356.537 233.866L358.337 234.651C359.296 235.069 359.061 235.525 357.812 235.664Z" fill="#F9DDBF"/>
<path d="M334.763 239.334L332.423 239.594C331.175 239.733 329.368 239.503 328.408 239.085L326.609 238.3C325.648 237.882 325.884 237.426 327.133 237.287L329.472 237.028C330.721 236.889 332.528 237.118 333.487 237.537L335.287 238.321C336.247 238.74 336.011 239.195 334.763 239.334Z" fill="#233862"/>
<path d="M326.026 234.062L326.026 237.894L335.873 238.871L335.873 235.202L326.026 234.062Z" fill="#233862"/>
<path d="M386.205 250.496L383.914 250.756C382.692 250.894 380.923 250.665 379.983 250.247L378.221 249.462C377.281 249.044 377.512 248.588 378.734 248.449L381.025 248.19C382.247 248.051 384.016 248.28 384.956 248.699L386.718 249.483C387.658 249.902 387.427 250.358 386.205 250.496Z" fill="#F9DDBF"/>
<path d="M375.41 250.497L373.119 250.757C371.897 250.895 370.128 250.666 369.188 250.248L367.426 249.463C366.486 249.045 366.717 248.589 367.939 248.45L370.23 248.19C371.452 248.052 373.221 248.281 374.161 248.699L375.923 249.484C376.863 249.902 376.632 250.358 375.41 250.497Z" fill="#F9DDBF"/>
<path d="M364.614 250.498L362.324 250.758C361.102 250.896 359.333 250.667 358.393 250.249L356.631 249.464C355.691 249.046 355.922 248.59 357.144 248.451L359.435 248.191C360.657 248.053 362.426 248.282 363.366 248.7L365.128 249.485C366.068 249.903 365.837 250.359 364.614 250.498Z" fill="#F9DDBF"/>
<path d="M353.82 250.499L351.529 250.759C350.307 250.897 348.537 250.668 347.598 250.249L345.836 249.465C344.896 249.046 345.127 248.591 346.349 248.452L348.64 248.192C349.862 248.054 351.631 248.283 352.571 248.701L354.333 249.486C355.273 249.904 355.042 250.36 353.82 250.499Z" fill="#F9DDBF"/>
<path d="M343.025 250.5L340.734 250.759C339.512 250.898 337.742 250.669 336.803 250.25L335.041 249.466C334.101 249.047 334.332 248.592 335.554 248.453L337.845 248.193C339.067 248.055 340.836 248.284 341.776 248.702L343.538 249.487C344.478 249.905 344.247 250.361 343.025 250.5Z" fill="#F9DDBF"/>
<path d="M332.23 250.501L329.939 250.761C328.716 250.899 326.947 250.67 326.007 250.251L324.246 249.467C323.306 249.048 323.537 248.593 324.759 248.454L327.05 248.194C328.272 248.056 330.041 248.285 330.981 248.703L332.743 249.488C333.683 249.906 333.452 250.362 332.23 250.501Z" fill="#F9DDBF"/>
<path d="M363.315 242.915L361.024 243.175C359.802 243.313 358.033 243.084 357.093 242.666L355.331 241.881C354.391 241.463 354.622 241.007 355.844 240.868L358.135 240.608C359.357 240.47 361.126 240.699 362.066 241.117L363.828 241.902C364.768 242.32 364.537 242.776 363.315 242.915Z" fill="#F9DDBF"/>
<path d="M373.996 242.914L371.705 243.174C370.483 243.312 368.714 243.083 367.774 242.665L366.012 241.88C365.072 241.462 365.303 241.006 366.525 240.867L368.816 240.607C370.038 240.469 371.807 240.698 372.747 241.117L374.509 241.901C375.449 242.319 375.218 242.775 373.996 242.914Z" fill="#F9DDBF"/>
<path d="M352.52 242.916L350.229 243.175C349.007 243.314 347.238 243.085 346.298 242.667L344.536 241.882C343.596 241.464 343.827 241.008 345.049 240.869L347.34 240.609C348.562 240.471 350.331 240.7 351.271 241.118L353.033 241.903C353.973 242.321 353.742 242.777 352.52 242.916Z" fill="#F9DDBF"/>
<path d="M341.725 242.917L339.434 243.176C338.212 243.315 336.443 243.086 335.503 242.667L333.741 241.883C332.801 241.464 333.032 241.009 334.254 240.87L336.545 240.61C337.767 240.471 339.536 240.701 340.476 241.119L342.238 241.904C343.178 242.322 342.947 242.778 341.725 242.917Z" fill="#F9DDBF"/>
<path d="M330.93 242.918L328.639 243.177C327.417 243.316 325.648 243.087 324.708 242.668L322.946 241.884C322.006 241.465 322.237 241.009 323.459 240.871L325.75 240.611C326.972 240.472 328.741 240.702 329.681 241.12L331.443 241.905C332.383 242.323 332.152 242.779 330.93 242.918Z" fill="#F9DDBF"/>
<path d="M320.135 242.919L317.844 243.178C316.622 243.317 314.853 243.088 313.913 242.669L312.151 241.885C311.211 241.466 311.442 241.01 312.664 240.872L314.955 240.612C316.177 240.473 317.946 240.702 318.886 241.121L320.648 241.905C321.588 242.324 321.357 242.78 320.135 242.919Z" fill="#F9DDBF"/>
<path d="M309.34 242.919L307.049 243.179C305.827 243.318 304.058 243.089 303.118 242.67L301.356 241.886C300.416 241.467 300.647 241.011 301.869 240.873L304.16 240.613C305.382 240.474 307.151 240.703 308.091 241.122L309.853 241.906C310.793 242.325 310.562 242.781 309.34 242.919Z" fill="#F9DDBF"/>
<path d="M399.879 258.373L397.42 258.652C396.108 258.801 394.209 258.555 393.2 258.106L391.309 257.264C390.301 256.814 390.548 256.325 391.86 256.176L394.319 255.897C395.631 255.749 397.53 255.994 398.539 256.444L400.43 257.286C401.439 257.735 401.191 258.225 399.879 258.373Z" fill="#F9DDBF"/>
<path d="M411.344 258.372L408.886 258.651C407.574 258.8 405.674 258.554 404.666 258.105L402.775 257.263C401.766 256.814 402.013 256.324 403.325 256.175L405.784 255.896C407.096 255.748 408.995 255.994 410.004 256.443L411.895 257.285C412.904 257.734 412.656 258.223 411.344 258.372Z" fill="#F9DDBF"/>
<path d="M388.292 258.374L385.833 258.653C384.521 258.802 382.622 258.556 381.613 258.106L379.722 257.264C378.713 256.815 378.961 256.326 380.273 256.177L382.732 255.898C384.043 255.749 385.943 255.995 386.952 256.445L388.843 257.287C389.851 257.736 389.603 258.226 388.292 258.374Z" fill="#F9DDBF"/>
<path d="M376.704 258.375L374.245 258.654C372.933 258.803 371.034 258.557 370.025 258.108L368.134 257.266C367.125 256.816 367.373 256.327 368.685 256.178L371.144 255.899C372.456 255.751 374.355 255.997 375.364 256.446L377.255 257.288C378.264 257.737 378.016 258.226 376.704 258.375Z" fill="#F9DDBF"/>
<path d="M365.116 258.376L362.657 258.655C361.345 258.804 359.446 258.558 358.437 258.109L356.546 257.266C355.537 256.817 355.785 256.328 357.097 256.179L359.556 255.9C360.868 255.751 362.767 255.997 363.776 256.447L365.667 257.289C366.676 257.738 366.428 258.228 365.116 258.376Z" fill="#F9DDBF"/>
<path d="M353.529 258.377L351.07 258.656C349.758 258.805 347.859 258.559 346.85 258.11L344.959 257.268C343.95 256.818 344.198 256.329 345.51 256.18L347.969 255.901C349.281 255.753 351.18 255.999 352.189 256.448L354.08 257.29C355.089 257.739 354.841 258.228 353.529 258.377Z" fill="#F9DDBF"/>
<path d="M341.941 258.378L339.482 258.657C338.17 258.806 336.271 258.56 335.262 258.111L333.371 257.269C332.362 256.819 332.61 256.33 333.922 256.181L336.381 255.902C337.693 255.754 339.592 255.999 340.601 256.449L342.492 257.291C343.501 257.74 343.253 258.229 341.941 258.378Z" fill="#F9DDBF"/>
<path d="M323.737 235.666L321.397 235.925C320.149 236.064 318.342 235.835 317.382 235.416L315.583 234.632C314.622 234.213 314.859 233.757 316.107 233.619L318.446 233.359C319.695 233.221 321.502 233.45 322.462 233.868L324.261 234.653C325.221 235.071 324.985 235.527 323.737 235.666Z" fill="#F9DDBF"/>
<path d="M312.711 235.667L310.372 235.926C309.123 236.065 307.317 235.836 306.357 235.417L304.557 234.633C303.597 234.214 303.833 233.758 305.081 233.62L307.421 233.36C308.669 233.221 310.476 233.45 311.436 233.869L313.236 234.654C314.195 235.072 313.96 235.528 312.711 235.667Z" fill="#F9DDBF"/>
<path d="M301.686 235.667L299.346 235.927C298.098 236.066 296.291 235.837 295.331 235.418L293.532 234.634C292.572 234.215 292.808 233.759 294.056 233.621L296.396 233.361C297.644 233.222 299.451 233.451 300.411 233.87L302.21 234.654C303.17 235.073 302.934 235.529 301.686 235.667Z" fill="#F9DDBF"/>
<path d="M290.66 235.669L288.321 235.928C287.072 236.067 285.265 235.838 284.305 235.419L282.506 234.635C281.546 234.216 281.782 233.76 283.03 233.622L285.37 233.362C286.618 233.223 288.425 233.452 289.385 233.871L291.184 234.655C292.145 235.074 291.909 235.53 290.66 235.669Z" fill="#F9DDBF"/>
<path d="M334.763 235.665L332.423 235.924C331.174 236.063 329.368 235.834 328.407 235.415L326.608 234.631C325.648 234.212 325.884 233.757 327.132 233.618L329.472 233.358C330.72 233.22 332.527 233.449 333.487 233.867L335.287 234.652C336.247 235.07 336.011 235.526 334.763 235.665Z" fill="#F9DDBF"/>
<path d="M265.131 228.559C264.1 227.754 265.432 222.924 265.432 222.924C265.432 222.924 271.236 219.582 271.522 222.755C271.809 225.928 275.869 227.864 278.238 228.556C279.874 229.033 280.266 229.99 280.352 230.536L265.131 228.559Z" fill="#182B49"/>
<path d="M250.849 229.765C249.818 228.96 251.151 224.13 251.151 224.13C251.151 224.13 256.955 220.788 257.241 223.961C257.527 227.134 261.588 229.07 263.957 229.762C265.592 230.239 265.985 231.195 266.071 231.742L250.849 229.765Z" fill="#233862"/>
<path d="M248.11 176.426C248.11 176.426 271.997 182.081 273.762 189.45C275.527 196.819 272.04 223.72 272.04 223.72C272.04 223.72 269.082 224.602 265.067 223.19C265.067 223.19 263.654 214.487 263.396 206.258C263.228 200.898 265.291 195.136 264.09 195.024C261.044 194.738 231.993 192.366 230.16 183.236C228.328 174.106 248.11 176.426 248.11 176.426Z" fill="#233862"/>
<path d="M232.124 176.807C232.124 176.807 258.656 182.037 260.42 189.406C262.186 196.776 258.857 224.148 258.857 224.148C258.857 224.148 259.524 225.611 250.405 224.183C250.405 224.183 248.083 213.25 247.825 205.021C247.657 199.66 249.853 195.306 248.65 195.214C229.172 193.724 220.883 198.461 221.643 179.647C222.018 170.357 232.124 176.807 232.124 176.807Z" fill="#2B478B"/>
<path d="M221.114 178.278C221.067 178.892 227.994 180.118 231.086 180.003C246.589 179.426 248.943 176.582 248.948 176.575C249.229 176.235 247.385 166.004 247.282 162.174C247.188 158.683 247.124 154.537 247.118 149.618C247.11 143.701 237.569 137.334 237.393 137.334L237.391 137.337C237.391 138.189 235.992 139.762 233.838 139.897C231.281 140.058 228.144 138.836 228.144 137.423C228.144 137.408 222.645 154.903 220.089 149.668L221.114 178.278Z" fill="#F99746"/>
<path d="M237.393 137.335C237.393 137.335 246.265 137.263 248.4 140.137C250.535 143.012 255.216 158.477 252.774 163.622C250.331 168.768 245.759 161.494 243.222 158.342C240.685 155.19 237.393 137.335 237.393 137.335Z" fill="#F99746"/>
<path d="M237.483 136.035L237.479 136.915C237.479 136.915 237.728 139.669 234.197 140.071C230.665 140.474 227.989 138.997 228.085 136.873C228.403 135.227 228.752 134.098 228.776 132.736C228.785 132.23 228.749 131.694 228.65 131.088L235.494 130.956L237.509 131.273L237.483 136.035Z" fill="#FFB27D"/>
<path d="M237.509 131.272L237.483 136.035C236.757 136.359 235.936 136.558 235.017 136.558C231.872 136.558 229.838 134.343 228.776 132.736C228.785 132.23 228.749 131.693 228.65 131.087L235.494 130.956L237.509 131.272Z" fill="#E2915A"/>
<path d="M228.126 130.03C228.92 134.133 234.434 133.998 236.817 133.74C237.488 133.669 237.909 133.586 237.909 133.586C238.666 133.393 239.088 132.249 239.283 130.751C239.672 127.787 239.181 123.437 238.66 122.324C237.875 120.649 236.396 118.838 230.843 120.145C225.289 121.453 227.107 124.774 228.126 130.03Z" fill="#FFB27D"/>
<path d="M246.465 148.86C246.465 148.86 249.896 156.134 249.797 158.315C249.797 158.315 248.836 158.256 247.204 158.723L246.465 148.86Z" fill="#EF873A"/>
<path d="M240.364 118.419C240.364 118.419 237.92 118.238 235.037 117.035C232.697 116.058 229.745 117.134 228.786 117.619C228.812 117.47 228.874 117.268 229.02 117.065C229.02 117.065 228.59 117.358 228.526 117.767C228.482 117.799 228.462 117.821 228.474 117.828C228.474 117.828 227.986 117.742 227.672 117.878C227.672 117.878 227.892 117.847 227.97 117.983C227.979 117.997 227.991 118.009 228.005 118.02C224.355 119.713 224.018 125.251 225.193 126.532C226.606 128.074 228.301 131.546 228.301 131.546C228.301 131.546 228.918 130.726 228.661 129.369C228.405 128.012 229.625 128.012 231.167 127.395C232.708 126.779 231.424 125.052 232.772 124.004C234.121 122.956 239.067 123.572 239.003 122.77C240.839 122.129 240.364 118.599 240.364 118.419Z" fill="#233862"/>
<path d="M227.007 162.487C228.456 168.071 245.089 172.855 248.65 173.441C248.499 171.02 248.227 165.239 248.123 161.36L227.007 162.487Z" fill="#EF873A"/>
<path d="M230.446 164.302C230.297 164.302 226.964 163.824 226.367 163.538C225.77 163.251 223.039 159.526 224.828 158.571C226.615 157.615 231.416 161.436 231.416 161.436L230.446 164.302Z" fill="#FFB27D"/>
<path d="M250.719 165.409C250.719 165.409 237.828 166.08 229.177 164.302C229.177 164.302 228.958 161.903 231.677 160.837C231.677 160.837 245.161 158.093 248.4 158.857C251.639 159.622 250.719 165.409 250.719 165.409Z" fill="#F99746"/>
<path d="M221.114 155.697C223.79 158.793 227.287 161.322 231.143 161.914L231.143 161.913C231.176 161.866 232.311 160.212 232.098 157.78C231.999 156.655 231.612 155.362 230.694 153.986C230.411 153.563 230.16 153.068 229.936 152.519C227.83 147.362 228.144 137.422 228.144 137.422C228.144 137.422 219.203 138.321 216.417 142.142C214.711 144.482 216.887 150.8 221.114 155.697Z" fill="#F99746"/>
<path d="M236.817 133.74C237.487 133.669 237.909 133.586 237.909 133.586C238.665 133.393 239.087 132.249 239.283 130.751C237.865 131.087 237.216 132.138 236.945 132.586C236.823 132.788 236.798 133.24 236.817 133.74Z" fill="#E2915A"/>
<path d="M240.419 136.061C240.419 136.061 243.507 131.169 241.106 130.956C238.704 130.743 237.74 132.304 237.393 132.877C237.046 133.45 237.483 136.035 237.483 136.035L240.419 136.061Z" fill="#FFB27D"/>
<path d="M228.65 157.616C228.745 158.235 228.938 158.806 229.176 159.314C229.93 160.921 231.143 161.914 231.143 161.914L231.143 161.913C239.163 158.438 240.786 146.505 241.057 139.949C241.167 137.314 241.057 135.546 241.057 135.546C237.44 134.396 236.423 136.395 236.423 136.395C236.423 136.395 232.151 146.146 229.936 152.519C229.088 154.957 228.542 156.902 228.65 157.616Z" fill="#F99746"/>
<path d="M221.114 155.697C223.79 158.793 227.287 161.322 231.143 161.914L231.143 161.913C239.163 158.438 240.786 146.505 241.057 139.949C241.057 139.949 237.263 153.162 232.098 157.78C231.164 158.616 230.185 159.17 229.176 159.314C229.176 159.314 222.663 157.547 221.297 155.883C221.2 155.763 221.14 155.704 221.114 155.697Z" fill="#EF873A"/>
<path d="M365.202 86.0967C365.202 86.0967 357.584 114.122 330.336 120.75L354.877 150.784C354.877 150.784 383.536 137.569 387.519 114.813L365.202 86.0967Z" fill="white"/>
<path d="M362.516 101.903L362.019 102.291L377.532 120.602L378.029 120.214L362.516 101.903Z" fill="#D2E0FF"/>
<path d="M361.068 105.585L360.561 105.961L375.506 124.543L376.012 124.167L361.068 105.585Z" fill="#D2E0FF"/>
<path d="M358.67 108.789L358.156 109.155L373.954 129.604L374.468 129.238L358.67 108.789Z" fill="#D2E0FF"/>
<path d="M355.53 112.685L355.014 113.05L370.813 133.681L371.329 133.317L355.53 112.685Z" fill="#D2E0FF"/>
<path d="M352.252 115.758L351.736 116.122L367.535 136.754L368.051 136.39L352.252 115.758Z" fill="#D2E0FF"/>
<path d="M347.631 118.252L347.115 118.616L362.914 139.248L363.43 138.884L347.631 118.252Z" fill="#D2E0FF"/>
<path d="M107.837 220.027C107.837 220.027 86.5987 205.038 89.7951 181.661L56.4706 191.086C56.4706 191.086 58.3893 217.689 76.3449 228.143L107.837 220.027Z" fill="#F3F8FF"/>
<path d="M95.192 212.303L74.6998 218.485L74.8676 218.998L95.3597 212.816L95.192 212.303Z" fill="#D2E0FF"/>
<path d="M92.5467 210.017L72.003 215.658L72.157 216.174L92.7007 210.534L92.5467 210.017Z" fill="#D2E0FF"/>
<path d="M90.6195 207.082L68.2253 212.788L68.3688 213.307L90.7631 207.602L90.6195 207.082Z" fill="#D2E0FF"/>
<path d="M88.3268 203.384L65.7767 209.034L65.9179 209.553L88.4681 203.904L88.3268 203.384Z" fill="#D2E0FF"/>
<path d="M86.7942 199.834L64.2442 205.483L64.3855 206.003L86.9355 200.354L86.7942 199.834Z" fill="#D2E0FF"/>
<path d="M86.1652 195.441L63.6151 201.092L63.7564 201.612L86.3065 195.961L86.1652 195.441Z" fill="#D2E0FF"/>
<path d="M244.525 272.575C244.525 272.575 214.438 253.829 216.851 221.832L172.361 237.168C172.361 237.168 177.163 273.16 202.416 285.995L244.525 272.575Z" fill="#EBF3FA"/>
<path d="M226.698 263.035L199.373 272.99L199.643 273.674L226.968 263.718L226.698 263.035Z" fill="#D2E0FF"/>
<path d="M222.916 260.119L195.48 269.352L195.732 270.042L223.168 260.809L222.916 260.119Z" fill="#D2E0FF"/>
<path d="M220.074 256.324L190.123 265.776L190.361 266.471L220.312 257.019L220.074 256.324Z" fill="#D2E0FF"/>
<path d="M216.643 251.466L186.476 260.851L186.711 261.546L216.878 252.161L216.643 251.466Z" fill="#D2E0FF"/>
<path d="M214.262 246.765L184.095 256.15L184.33 256.845L214.497 247.46L214.262 246.765Z" fill="#D2E0FF"/>
<path d="M213.074 240.799L182.911 250.193L183.146 250.889L213.309 241.494L213.074 240.799Z" fill="#D2E0FF"/>
<path d="M262.189 66.2755C262.189 66.2755 279.072 80.876 274.248 100.665L303.672 95.3163C303.672 95.3163 304.396 72.339 289.925 61.8981L262.189 66.2755Z" fill="white"/>
<path d="M289.453 65.6255L270.746 68.5064L270.823 68.9636L289.529 66.0827L289.453 65.6255Z" fill="#D2E0FF"/>
<path d="M291.152 67.6872L272.929 70.3596L273.002 70.8174L291.225 68.145L291.152 67.6872Z" fill="#D2E0FF"/>
<path d="M292.126 69.842L274.867 72.5189L274.944 72.9761L292.203 70.2992L292.126 69.842Z" fill="#D2E0FF"/>
<path d="M293.629 72.5066L276.05 74.9833L276.12 75.4417L293.699 72.965L293.629 72.5066Z" fill="#D2E0FF"/>
<path d="M294.493 74.5701L277.127 77.0425L277.197 77.5006L294.563 75.0282L294.493 74.5701Z" fill="#D2E0FF"/>
<path d="M295.98 77.0539L277.113 80.1388L277.194 80.5954L296.061 77.5105L295.98 77.0539Z" fill="#D2E0FF"/>
<path d="M141.731 285.005C141.731 285.211 141.743 285.415 141.77 285.614C141.85 286.251 142.056 286.852 142.362 287.392C142.601 287.814 142.902 288.198 143.253 288.534C144.195 289.437 145.493 289.995 146.929 289.995H220.039C222.91 289.995 225.239 287.761 225.239 285.005C225.239 283.626 224.657 282.379 223.716 281.476C222.775 280.572 221.476 280.014 220.039 280.014H146.929C144.058 280.014 141.731 282.248 141.731 285.005Z" fill="#2B478B"/>
<path d="M147.307 279.111H172.374C172.813 279.111 173.172 278.766 173.172 278.345C173.172 277.924 172.813 277.579 172.374 277.579H147.307C146.868 277.579 146.51 277.924 146.51 278.345C146.509 278.766 146.868 279.111 147.307 279.111Z" fill="#2B478B"/>
<path d="M148.692 280.014H151.409V279.111H148.692V280.014Z" fill="#233862"/>
<path d="M142.362 287.392C142.601 287.814 142.902 288.198 143.253 288.534C144.195 289.437 145.493 289.995 146.929 289.995H162.415V287.392L142.362 287.392Z" fill="#233862"/>
<path d="M234.916 283.543V286.467C234.916 286.787 234.871 287.098 234.788 287.392C234.366 288.893 232.938 289.996 231.241 289.996H155.084C153.388 289.996 151.96 288.893 151.537 287.392C151.454 287.098 151.409 286.787 151.409 286.467V283.543C151.409 281.594 153.054 280.014 155.084 280.014H231.241C233.272 280.014 234.916 281.594 234.916 283.543Z" fill="#F99746"/>
<path d="M234.788 287.392C234.366 288.893 232.938 289.996 231.241 289.996H155.084C153.388 289.996 151.96 288.893 151.537 287.392H234.788Z" fill="#EF873A"/>
<path d="M227.352 285.023C227.352 286.573 227.939 287.959 228.864 288.877C228.886 288.897 228.905 288.917 228.926 288.937C229.642 289.621 230.549 290.031 231.536 290.031C233.077 290.031 236.899 287.798 239.267 286.315C240.447 285.576 241.266 285.023 241.266 285.023C241.266 285.023 240.447 284.47 239.267 283.731C236.899 282.247 233.077 280.014 231.536 280.014C231.089 280.014 230.66 280.097 230.256 280.251C229.576 280.514 228.97 280.979 228.493 281.587C227.966 282.255 227.592 283.095 227.434 284.029C227.433 284.04 227.43 284.051 227.43 284.062C227.379 284.371 227.352 284.693 227.352 285.023Z" fill="#8C9DF4"/>
<path d="M227.352 285.023C227.352 286.573 227.939 287.959 228.864 288.877L240.586 285.005L227.43 284.062C227.379 284.371 227.352 284.693 227.352 285.023Z" fill="#6980E2"/>
<path d="M228.493 281.587L240.186 284.653L230.256 280.251C229.576 280.514 228.97 280.979 228.493 281.587Z" fill="#9FB1FF"/>
<path d="M238.504 285.023C238.504 285.619 238.822 286.127 239.267 286.315C240.447 285.576 241.266 285.023 241.266 285.023C241.266 285.023 240.447 284.47 239.267 283.731C238.822 283.917 238.504 284.425 238.504 285.023Z" fill="#182D4C"/>
<path d="M465.807 291.161H40.4775C40.2085 291.161 39.9886 290.95 39.9886 290.692V290.518C39.9886 290.26 40.2085 290.049 40.4775 290.049H465.807C466.076 290.049 466.295 290.26 466.295 290.518V290.692C466.296 290.95 466.076 291.161 465.807 291.161Z" fill="#2E3552"/>
</g>
<defs>
<clipPath id="clip0_274_316">
<rect width="500" height="320" fill="white"/>
</clipPath>
</defs>
</svg>
